<svg width="18" height="20" viewBox="0 0 18 20" fill="none" xmlns="http://www.w3.org/2000/svg">
<path d="M0.833333 0V4.16667H0V5.83333H2.5V1.66667H15.8333V18.3333H2.5V15.8333H0.833333V20H17.5V0H0.833333ZM9.16667 5C7.33333 5 5.83333 6.5 5.83333 8.33333C5.83333 9.26083 6.23083 10.0975 6.84917 10.7033C6.28219 11.0864 5.81736 11.6021 5.49509 12.2057C5.17282 12.8093 5.00287 13.4824 5 14.1667H6.66667C6.66667 13.5036 6.93006 12.8677 7.3989 12.3989C7.86774 11.9301 8.50362 11.6667 9.16667 11.6667C9.82971 11.6667 10.4656 11.9301 10.9344 12.3989C11.4033 12.8677 11.6667 13.5036 11.6667 14.1667H13.3333C13.3305 13.4824 13.1605 12.8093 12.8382 12.2057C12.516 11.6021 12.0511 11.0864 11.4842 10.7033C12.1025 10.0975 12.5 9.26167 12.5 8.33333C12.5 6.5 11 5 9.16667 5ZM0.833333 6.66667V8.33333H0V10H2.5V6.66667H0.833333ZM9.16667 6.66667C10.0975 6.66667 10.8333 7.4025 10.8333 8.33333C10.8333 9.26417 10.0975 10 9.16667 10C8.23583 10 7.5 9.26417 7.5 8.33333C7.5 7.4025 8.23583 6.66667 9.16667 6.66667ZM0.833333 10.8333V12.5H0V14.1667H2.5V10.8333H0.833333Z" fill="url(#paint0_linear)"/>
<defs>
<linearGradient id="paint0_linear" x1="8.75" y1="0" x2="8.75" y2="20" gradientUnits="userSpaceOnUse">
<stop stop-color="#0083B0"/>
<stop offset="1" stop-color="#00B4DB"/>
</linearGradient>
</defs>
</svg>
