<svg width="321" height="187" viewBox="0 0 321 187" fill="none" xmlns="http://www.w3.org/2000/svg">
<g filter="url(#filter0_d)">
<rect x="2" width="317" height="183" rx="10" fill="#F3F3F3"/>
<mask id="mask0" mask-type="alpha" maskUnits="userSpaceOnUse" x="2" y="0" width="317" height="183">
<rect x="2" width="317" height="183" rx="10" fill="#424242"/>
</mask>
<g mask="url(#mask0)">
<path d="M302.626 117.875C306.893 115.469 312.107 115.469 316.374 117.875L411.927 171.734C416.329 174.215 419.052 178.876 419.052 183.93V291.07C419.052 296.124 416.329 300.785 411.927 303.266L316.374 357.125C312.107 359.531 306.893 359.531 302.626 357.125L207.073 303.266C202.671 300.785 199.948 296.124 199.948 291.07V183.93C199.948 178.876 202.671 174.215 207.073 171.734L302.626 117.875Z" fill="#00B4DB"/>
</g>
<path d="M295 135C282.869 135 273 144.869 273 157C273 169.131 282.869 179 295 179C307.131 179 317 169.131 317 157C317 144.869 307.131 135 295 135ZM295 174.6C285.296 174.6 277.4 166.704 277.4 157C277.4 147.296 285.296 139.4 295 139.4C304.704 139.4 312.6 147.296 312.6 157C312.6 166.704 304.704 174.6 295 174.6Z" fill="#74E6FF" fill-opacity="0.2"/>
<path d="M297.2 146H292.8V157.911L300.044 165.155L303.155 162.045L297.2 156.089V146Z" fill="#74E6FF" fill-opacity="0.2"/>
<path d="M44.6875 72C42.1172 72 40 74.089 40 76.625V104.375C40 106.911 42.1172 109 44.6875 109H60.3125C62.8828 109 65 106.911 65 104.375V76.625C65 74.089 62.8828 72 60.3125 72H44.6875ZM44.6875 75.0833H60.3125C61.1797 75.0833 61.875 75.7694 61.875 76.625V104.375C61.875 105.231 61.1797 105.917 60.3125 105.917H44.6875C43.8203 105.917 43.125 105.231 43.125 104.375V76.625C43.125 75.7694 43.8203 75.0833 44.6875 75.0833ZM52.5 101.292C52.0856 101.292 51.6882 101.454 51.3951 101.743C51.1021 102.032 50.9375 102.424 50.9375 102.833C50.9375 103.242 51.1021 103.634 51.3951 103.923C51.6882 104.213 52.0856 104.375 52.5 104.375C52.9144 104.375 53.3118 104.213 53.6049 103.923C53.8979 103.634 54.0625 103.242 54.0625 102.833C54.0625 102.424 53.8979 102.032 53.6049 101.743C53.3118 101.454 52.9144 101.292 52.5 101.292Z" fill="#DEDEDE" fill-opacity="0.69"/>
<path fill-rule="evenodd" clip-rule="evenodd" d="M67.3621 130.319C67.4631 130.218 67.583 130.138 67.7151 130.083C67.8472 130.028 67.9888 130 68.1318 130C68.2747 130 68.4163 130.028 68.5484 130.083C68.6805 130.138 68.8005 130.218 68.9015 130.319L74.9431 136.361C75.147 136.565 75.2613 136.842 75.2611 137.13C75.2609 137.419 75.1461 137.695 74.9419 137.899C74.7378 138.103 74.461 138.217 74.1726 138.217C73.8841 138.217 73.6075 138.102 73.4037 137.898L69.2205 133.712V155.047L73.4037 150.861C73.6075 150.657 73.8841 150.542 74.1726 150.542C74.461 150.542 74.7378 150.656 74.9419 150.86C75.1461 151.064 75.2609 151.34 75.2611 151.629C75.2613 151.917 75.147 152.194 74.9431 152.398L68.9015 158.44C68.8005 158.541 68.6805 158.621 68.5484 158.676C68.4163 158.731 68.2747 158.759 68.1318 158.759C67.9888 158.759 67.8472 158.731 67.7151 158.676C67.583 158.621 67.4631 158.541 67.3621 158.44L61.3204 152.398C61.1166 152.194 61.0022 151.917 61.0024 151.629C61.0026 151.34 61.1175 151.064 61.3216 150.86C61.5257 150.656 61.8025 150.542 62.0909 150.542C62.3794 150.542 62.656 150.657 62.8598 150.861L67.0455 155.047V133.712L62.8574 137.898C62.6536 138.102 62.377 138.217 62.0885 138.217C61.8001 138.217 61.5233 138.103 61.3192 137.899C61.115 137.695 61.0002 137.419 61 137.13C60.9998 136.842 61.1142 136.565 61.318 136.361L67.3596 130.319H67.3621Z" fill="#DEDEDE" fill-opacity="0.69"/>
<path d="M29.6111 36.952V45.8272L30.9109 47.6975C31.1913 48.1008 31.8093 48.1008 32.0897 47.6975L33.3889 45.8272V36.952C32.7756 37.0608 32.1458 37.1254 31.5 37.1254C30.8542 37.1254 30.2244 37.0608 29.6111 36.952ZM31.5 19C26.8055 19 23 22.6517 23 27.1564C23 31.6611 26.8055 35.3128 31.5 35.3128C36.1945 35.3128 40 31.6611 40 27.1564C40 22.6517 36.1945 19 31.5 19ZM31.5 23.3048C29.2865 23.3048 27.4861 25.0323 27.4861 27.1564C27.4861 27.5314 27.1685 27.8361 26.7778 27.8361C26.387 27.8361 26.0694 27.5314 26.0694 27.1564C26.0694 24.283 28.5061 21.9454 31.5 21.9454C31.8908 21.9454 32.2083 22.2501 32.2083 22.6251C32.2083 23 31.8908 23.3048 31.5 23.3048Z" fill="#DEDEDE" fill-opacity="0.69"/>
<g opacity="0.12">
<path d="M274.858 41.6097L268.439 56.6857L268.355 56.8874C266.446 61.5685 264.883 65.9373 262.888 70.1076C259.331 77.5375 256.043 85.1756 251.672 92.1061C245.962 101.145 237.371 105.915 226.517 106.562C220.923 106.897 215.457 106.806 209.981 105.596C196.932 102.714 186.946 91.719 185.326 78.3394C183.284 61.453 193.066 46.6144 209.339 42.2505C212.38 41.4373 215.652 41.2958 218.825 41.1949C224.001 41.0323 229.184 41.2161 234.362 41.1152C236.155 41.0843 236.555 41.7463 236.429 43.4249C235.966 49.4267 230.121 54.4525 223.164 54.6754C220.955 54.7437 218.746 54.7925 216.535 54.7388C208.128 54.5322 200.078 62.2907 198.959 71.1112C197.83 80.0374 202.426 88.8254 210.35 91.6279C219.541 94.8809 228.56 94.3035 236.405 87.8235C240.713 84.268 243.355 79.2844 245.749 74.3235C250.704 64.0603 255.424 53.6669 260.144 43.3045C260.844 41.7707 261.653 41.0485 263.385 41.1169C266.499 41.2388 269.635 41.2502 272.75 41.1169C273.649 41.0843 274.316 41.2372 274.858 41.6097Z" fill="#353535"/>
<path d="M298.997 98.5275C298.088 99.5196 297.19 100.528 296.304 101.553C295.142 102.911 294.005 104.297 292.918 105.708C292.36 106.424 291.809 106.832 291.177 107.01L287.727 99.9637L283.982 92.2866L283.882 92.0898C281.603 87.6022 279.494 83.2595 277.653 79.0338C277.653 79.0192 277.643 79.0078 277.638 78.9915L268.361 56.8874L274.865 41.6096C274.865 41.6096 275.671 42.1708 275.964 42.888L285.604 63.4259C285.604 63.4259 285.604 63.4422 285.613 63.447C290.117 73.9136 294.727 84.2663 299.462 94.6222C300.155 96.1544 300.171 97.2425 298.997 98.5275Z" fill="#8FD8E5"/>
<path d="M299.455 94.6223C297.247 94.5247 270.528 94.297 268.318 94.3182C261.36 94.4044 255.418 99.3148 254.84 105.307C254.679 106.98 255.068 107.652 256.862 107.655C262.04 107.655 267.218 107.943 272.397 107.88C275.572 107.841 288.113 107.766 291.168 107.008C291.168 107.008 291.96 106.907 292.997 105.596C294.034 104.285 298.218 99.4384 298.541 99.0269C299.219 98.1648 299.884 97.8363 299.939 96.3383C299.993 94.8403 299.455 94.6223 299.455 94.6223Z" fill="#353535"/>
</g>
</g>
<defs>
<filter id="filter0_d" x="0" y="0" width="321" height="187" filterUnits="userSpaceOnUse" color-interpolation-filters="sRGB">
<feFlood flood-opacity="0" result="BackgroundImageFix"/>
<feColorMatrix in="SourceAlpha" type="matrix" values="0 0 0 0 0 0 0 0 0 0 0 0 0 0 0 0 0 0 127 0"/>
<feOffset dy="2"/>
<feGaussianBlur stdDeviation="1"/>
<feColorMatrix type="matrix" values="0 0 0 0 0 0 0 0 0 0 0 0 0 0 0 0 0 0 0.25 0"/>
<feBlend mode="normal" in2="BackgroundImageFix" result="effect1_dropShadow"/>
<feBlend mode="normal" in="SourceGraphic" in2="effect1_dropShadow" result="shape"/>
</filter>
</defs>
</svg>
