<svg width="321" height="187" viewBox="0 0 321 187" fill="none" xmlns="http://www.w3.org/2000/svg">
<g filter="url(#filter0_d)">
<rect x="2" width="317" height="183" rx="10" fill="#F3F3F3"/>
<mask id="mask0" mask-type="alpha" maskUnits="userSpaceOnUse" x="2" y="0" width="317" height="183">
<rect x="2" width="317" height="183" rx="10" fill="#424242"/>
</mask>
<g mask="url(#mask0)">
<path d="M44.6256 -28.1252C48.8929 -30.5305 54.1071 -30.5305 58.3744 -28.1252L153.927 25.7336C158.329 28.215 161.052 32.8762 161.052 37.9296V145.07C161.052 150.124 158.329 154.785 153.927 157.266L58.3744 211.125C54.1071 213.531 48.8929 213.531 44.6256 211.125L-50.9266 157.266C-55.3289 154.785 -58.0522 150.124 -58.0522 145.07V37.9296C-58.0522 32.8762 -55.3289 28.215 -50.9266 25.7336L44.6256 -28.1252Z" fill="#00B4DB"/>
</g>
<path d="M295.758 146.933H291.594V149.4H295.437V176.533H259.563V149.4H263.406V146.933H259.242C258.943 146.938 258.647 147 258.373 147.114C258.098 147.229 257.849 147.395 257.641 147.602C257.433 147.81 257.269 148.054 257.159 148.323C257.049 148.591 256.995 148.877 257 149.166V176.768C256.995 177.056 257.049 177.342 257.159 177.611C257.269 177.879 257.433 178.124 257.641 178.331C257.849 178.538 258.098 178.704 258.373 178.819C258.647 178.934 258.943 178.995 259.242 179H295.758C296.057 178.995 296.353 178.934 296.627 178.819C296.902 178.704 297.151 178.538 297.359 178.331C297.567 178.124 297.731 177.879 297.841 177.611C297.951 177.342 298.005 177.056 298 176.768V149.166C298.005 148.877 297.951 148.591 297.841 148.323C297.731 148.054 297.567 147.81 297.359 147.602C297.151 147.395 296.902 147.229 296.627 147.114C296.353 147 296.057 146.938 295.758 146.933Z" fill="#DEDEDE" fill-opacity="0.5"/>
<path d="M264.688 156.8H267.25V159.267H264.688V156.8Z" fill="#DEDEDE" fill-opacity="0.5"/>
<path d="M272.375 156.8H274.937V159.267H272.375V156.8Z" fill="#DEDEDE" fill-opacity="0.5"/>
<path d="M280.062 156.8H282.625V159.267H280.062V156.8Z" fill="#DEDEDE" fill-opacity="0.5"/>
<path d="M287.75 156.8H290.312V159.267H287.75V156.8Z" fill="#DEDEDE" fill-opacity="0.5"/>
<path d="M264.688 162.967H267.25V165.433H264.688V162.967Z" fill="#DEDEDE" fill-opacity="0.5"/>
<path d="M272.375 162.967H274.937V165.433H272.375V162.967Z" fill="#DEDEDE" fill-opacity="0.5"/>
<path d="M280.062 162.967H282.625V165.433H280.062V162.967Z" fill="#DEDEDE" fill-opacity="0.5"/>
<path d="M287.75 162.967H290.312V165.433H287.75V162.967Z" fill="#DEDEDE" fill-opacity="0.5"/>
<path d="M264.688 169.133H267.25V171.6H264.688V169.133Z" fill="#DEDEDE" fill-opacity="0.5"/>
<path d="M272.375 169.133H274.937V171.6H272.375V169.133Z" fill="#DEDEDE" fill-opacity="0.5"/>
<path d="M280.062 169.133H282.625V171.6H280.062V169.133Z" fill="#DEDEDE" fill-opacity="0.5"/>
<path d="M287.75 169.133H290.312V171.6H287.75V169.133Z" fill="#DEDEDE" fill-opacity="0.5"/>
<path d="M267.25 151.867C267.59 151.867 267.916 151.737 268.156 151.505C268.396 151.274 268.531 150.96 268.531 150.633V143.233C268.531 142.906 268.396 142.593 268.156 142.361C267.916 142.13 267.59 142 267.25 142C266.91 142 266.584 142.13 266.344 142.361C266.104 142.593 265.969 142.906 265.969 143.233V150.633C265.969 150.96 266.104 151.274 266.344 151.505C266.584 151.737 266.91 151.867 267.25 151.867Z" fill="#DEDEDE" fill-opacity="0.5"/>
<path d="M287.749 151.867C288.089 151.867 288.415 151.737 288.655 151.505C288.896 151.274 289.031 150.96 289.031 150.633V143.233C289.031 142.906 288.896 142.593 288.655 142.361C288.415 142.13 288.089 142 287.749 142C287.41 142 287.084 142.13 286.844 142.361C286.603 142.593 286.468 142.906 286.468 143.233V150.633C286.468 150.96 286.603 151.274 286.844 151.505C287.084 151.737 287.41 151.867 287.749 151.867Z" fill="#DEDEDE" fill-opacity="0.5"/>
<path d="M271.094 146.933H283.906V149.4H271.094V146.933Z" fill="#DEDEDE" fill-opacity="0.5"/>
<path d="M190.792 82.473L188.677 84.5709C188.365 84.891 187.951 84.9995 187.548 85C185.766 84.9466 184.081 84.0712 182.698 83.1723C180.428 81.5207 178.345 79.4727 177.037 76.9979C176.536 75.9601 175.948 74.636 176.004 73.4776C176.009 73.0419 176.126 72.6142 176.433 72.3333L178.548 70.2196C178.987 69.846 179.412 69.9752 179.693 70.4103L181.394 73.6365C181.573 74.0188 181.47 74.4283 181.203 74.7014L180.424 75.4801C180.376 75.546 180.345 75.621 180.345 75.7027C180.643 76.8592 181.549 77.9251 182.348 78.6587C183.148 79.3923 184.007 80.3862 185.123 80.6215C185.261 80.66 185.43 80.6735 185.528 80.5818L186.435 79.66C186.747 79.4232 187.198 79.3074 187.532 79.501H187.548L190.617 81.3128C191.067 81.5952 191.114 82.141 190.792 82.473Z" fill="url(#paint0_linear)"/>
<path d="M175.833 108V112.167H175V113.833H177.5V109.667H190.833V126.333H177.5V123.833H175.833V128H192.5V108H175.833ZM184.167 113C182.333 113 180.833 114.5 180.833 116.333C180.833 117.261 181.231 118.097 181.849 118.703C181.282 119.086 180.817 119.602 180.495 120.206C180.173 120.809 180.003 121.482 180 122.167H181.667C181.667 121.504 181.93 120.868 182.399 120.399C182.868 119.93 183.504 119.667 184.167 119.667C184.83 119.667 185.466 119.93 185.934 120.399C186.403 120.868 186.667 121.504 186.667 122.167H188.333C188.33 121.482 188.161 120.809 187.838 120.206C187.516 119.602 187.051 119.086 186.484 118.703C187.102 118.097 187.5 117.262 187.5 116.333C187.5 114.5 186 113 184.167 113ZM175.833 114.667V116.333H175V118H177.5V114.667H175.833ZM184.167 114.667C185.097 114.667 185.833 115.402 185.833 116.333C185.833 117.264 185.097 118 184.167 118C183.236 118 182.5 117.264 182.5 116.333C182.5 115.402 183.236 114.667 184.167 114.667ZM175.833 118.833V120.5H175V122.167H177.5V118.833H175.833Z" fill="url(#paint1_linear)"/>
</g>
<defs>
<filter id="filter0_d" x="0" y="0" width="321" height="187" filterUnits="userSpaceOnUse" color-interpolation-filters="sRGB">
<feFlood flood-opacity="0" result="BackgroundImageFix"/>
<feColorMatrix in="SourceAlpha" type="matrix" values="0 0 0 0 0 0 0 0 0 0 0 0 0 0 0 0 0 0 127 0"/>
<feOffset dy="2"/>
<feGaussianBlur stdDeviation="1"/>
<feColorMatrix type="matrix" values="0 0 0 0 0 0 0 0 0 0 0 0 0 0 0 0 0 0 0.25 0"/>
<feBlend mode="normal" in2="BackgroundImageFix" result="effect1_dropShadow"/>
<feBlend mode="normal" in="SourceGraphic" in2="effect1_dropShadow" result="shape"/>
</filter>
<linearGradient id="paint0_linear" x1="183.5" y1="70" x2="183.5" y2="85" gradientUnits="userSpaceOnUse">
<stop stop-color="#0083B0"/>
<stop offset="1" stop-color="#00B4DB"/>
</linearGradient>
<linearGradient id="paint1_linear" x1="183.75" y1="108" x2="183.75" y2="128" gradientUnits="userSpaceOnUse">
<stop stop-color="#0083B0"/>
<stop offset="1" stop-color="#00B4DB"/>
</linearGradient>
</defs>
</svg>
