<svg width="24" height="26" viewBox="0 0 24 26" fill="none" xmlns="http://www.w3.org/2000/svg">
<path d="M19.5652 20.65C19.2193 20.65 18.8875 20.7817 18.6429 21.0161C18.3983 21.2506 18.2609 21.5685 18.2609 21.9C18.2609 22.2315 18.1234 22.5495 17.8788 22.7839C17.6342 23.0183 17.3025 23.15 16.9565 23.15H3.91304C3.56711 23.15 3.23534 23.0183 2.99073 22.7839C2.74612 22.5495 2.6087 22.2315 2.6087 21.9V4.40002C2.6087 4.0685 2.74612 3.75056 2.99073 3.51614C3.23534 3.28172 3.56711 3.15002 3.91304 3.15002H10.4348V6.90002C10.4348 7.89459 10.847 8.84841 11.5809 9.55167C12.3147 10.2549 13.31 10.65 14.3478 10.65H18.2609V11.9C18.2609 12.2315 18.3983 12.5495 18.6429 12.7839C18.8875 13.0183 19.2193 13.15 19.5652 13.15C19.9112 13.15 20.2429 13.0183 20.4875 12.7839C20.7321 12.5495 20.8696 12.2315 20.8696 11.9V9.40002V9.32502C20.856 9.21019 20.8297 9.09706 20.7913 8.98752C20.7968 8.95021 20.7968 8.91234 20.7913 8.87502C20.7286 8.7465 20.6449 8.62836 20.5435 8.52502L12.7174 1.02502C12.6096 0.927795 12.4863 0.847626 12.3522 0.787524H12.2217C12.0987 0.724313 11.967 0.678025 11.8304 0.650024H3.91304C2.87524 0.650024 1.87994 1.04511 1.1461 1.74837C0.412266 2.45164 0 3.40546 0 4.40002V21.9C0 22.8946 0.412266 23.8484 1.1461 24.5517C1.87994 25.2549 2.87524 25.65 3.91304 25.65H16.9565C17.9943 25.65 18.9896 25.2549 19.7235 24.5517C20.4573 23.8484 20.8696 22.8946 20.8696 21.9C20.8696 21.5685 20.7321 21.2506 20.4875 21.0161C20.2429 20.7817 19.9112 20.65 19.5652 20.65ZM13.0435 4.91252L16.4217 8.15002H14.3478C14.0019 8.15002 13.6701 8.01833 13.4255 7.78391C13.1809 7.54949 13.0435 7.23154 13.0435 6.90002V4.91252ZM22.1739 15.65H18.913C18.7414 15.6491 18.5712 15.6806 18.4123 15.7428C18.2534 15.805 18.1088 15.8967 17.987 16.0125L16.3696 17.575L12.7174 13.575C12.5999 13.446 12.456 13.3416 12.2947 13.2681C12.1333 13.1946 11.9579 13.1536 11.7794 13.1477C11.6008 13.1419 11.4229 13.1712 11.2567 13.234C11.0905 13.2967 10.9395 13.3915 10.813 13.5125L8.59565 15.65H6.52174C6.1758 15.65 5.84404 15.7817 5.59943 16.0161C5.35481 16.2506 5.21739 16.5685 5.21739 16.9C5.21739 17.2315 5.35481 17.5495 5.59943 17.7839C5.84404 18.0183 6.1758 18.15 6.52174 18.15H9.13043C9.3021 18.151 9.47226 18.1194 9.63118 18.0572C9.7901 17.995 9.93464 17.9034 10.0565 17.7875L11.7391 16.225L15.3913 20.225C15.5091 20.3537 15.6533 20.4579 15.8148 20.531C15.9764 20.6041 16.1519 20.6446 16.3304 20.65C16.5021 20.651 16.6723 20.6194 16.8312 20.5572C16.9901 20.495 17.1346 20.4034 17.2565 20.2875L19.4478 18.15H22.1739C22.5198 18.15 22.8516 18.0183 23.0962 17.7839C23.3408 17.5495 23.4783 17.2315 23.4783 16.9C23.4783 16.5685 23.3408 16.2506 23.0962 16.0161C22.8516 15.7817 22.5198 15.65 22.1739 15.65Z" fill="#00B4DB"/>
</svg>
