<svg width="15" height="15" viewBox="0 0 15 15" fill="none" xmlns="http://www.w3.org/2000/svg">
<path d="M14.7916 12.473L12.6767 14.5709C12.3646 14.891 11.9508 14.9995 11.5478 15C9.76565 14.9466 8.08113 14.0712 6.69803 13.1723C4.42775 11.5207 2.34468 9.47275 1.0373 6.9979C0.535877 5.96011 -0.0524727 4.63597 0.00373975 3.47761C0.00875225 3.04186 0.126177 2.6142 0.433065 2.33332L2.54789 0.219561C2.98704 -0.153977 3.41173 -0.0248268 3.69275 0.410273L5.39414 3.63655C5.57321 4.01876 5.47049 4.42829 5.20331 4.7014L4.42416 5.48015C4.37606 5.54604 4.34544 5.62104 4.34466 5.70266C4.64344 6.85919 5.54858 7.92515 6.34818 8.65874C7.14776 9.39234 8.00724 10.3862 9.12289 10.6215C9.26079 10.66 9.4297 10.6735 9.52836 10.5818L10.4347 9.65997C10.7472 9.42316 11.1983 9.30741 11.5319 9.50105H11.5478L14.6166 11.3128C15.0672 11.5952 15.1141 12.141 14.7916 12.473Z" fill="url(#paint0_linear)"/>
<defs>
<linearGradient id="paint0_linear" x1="7.5" y1="0" x2="7.5" y2="15" gradientUnits="userSpaceOnUse">
<stop stop-color="#0083B0"/>
<stop offset="1" stop-color="#00B4DB"/>
</linearGradient>
</defs>
</svg>
