<svg width="20" height="18" viewBox="0 0 20 18" fill="none" xmlns="http://www.w3.org/2000/svg">
<path d="M12.8 1.61286L19.5011 12.7739C20.4641 14.3769 19.9911 16.4859 18.4441 17.4839C17.9248 17.8201 17.3196 17.9993 16.701 17.9999H3.29801C1.477 17.9999 0 16.4699 0 14.5809C0 13.9419 0.173 13.3169 0.498001 12.7739L7.20002 1.61286C8.16202 0.00985828 10.196 -0.481143 11.743 0.51686C12.171 0.792861 12.533 1.16786 12.8 1.61286ZM10 13.9999C10.2652 13.9999 10.5196 13.8945 10.7071 13.707C10.8947 13.5195 11 13.2651 11 12.9999C11 12.7347 10.8947 12.4803 10.7071 12.2928C10.5196 12.1053 10.2652 11.9999 10 11.9999C9.73481 11.9999 9.48046 12.1053 9.29292 12.2928C9.10538 12.4803 9.00003 12.7347 9.00003 12.9999C9.00003 13.2651 9.10538 13.5195 9.29292 13.707C9.48046 13.8945 9.73481 13.9999 10 13.9999ZM10 4.99987C9.73481 4.99987 9.48046 5.10523 9.29292 5.29277C9.10538 5.4803 9.00003 5.73466 9.00003 5.99988V9.99989C9.00003 10.2651 9.10538 10.5195 9.29292 10.707C9.48046 10.8945 9.73481 10.9999 10 10.9999C10.2652 10.9999 10.5196 10.8945 10.7071 10.707C10.8947 10.5195 11 10.2651 11 9.99989V5.99988C11 5.73466 10.8947 5.4803 10.7071 5.29277C10.5196 5.10523 10.2652 4.99987 10 4.99987Z" fill="white" fill-opacity="0.69"/>
</svg>
