<svg width="20" height="22" viewBox="0 0 20 22" fill="none" xmlns="http://www.w3.org/2000/svg">
<path d="M19.8971 19.126L18.4528 14.7919H16.868L17.7481 19.0182H2.25247L3.13259 14.7919H1.54774L0.102359 19.126C-0.26427 20.229 0.385519 21.1313 1.54774 21.1313H18.4528C19.615 21.1313 20.2648 20.229 19.8971 19.126ZM15.2831 5.28284C15.2831 3.88174 14.7265 2.53803 13.7358 1.54731C12.7451 0.556583 11.4014 0 10.0003 0C8.59918 0 7.25548 0.556583 6.26475 1.54731C5.27403 2.53803 4.71744 3.88174 4.71744 5.28284C4.71744 10.3279 10.0003 15.8485 10.0003 15.8485C10.0003 15.8485 15.2831 10.3279 15.2831 5.28284ZM7.14755 5.34623C7.14755 3.77089 8.42388 2.49456 10.0003 2.49456C10.7567 2.49456 11.4822 2.79505 12.0171 3.32995C12.552 3.86484 12.8525 4.59031 12.8525 5.34676C12.8525 6.10321 12.552 6.82868 12.0171 7.36357C11.4822 7.89846 10.7567 8.19896 10.0003 8.19896C9.24369 8.19896 8.51809 7.89841 7.98309 7.36342C7.4481 6.82842 7.14755 6.10282 7.14755 5.34623Z" fill="white" fill-opacity="0.69"/>
</svg>
