<svg width="20" height="20" viewBox="0 0 20 20" fill="none" xmlns="http://www.w3.org/2000/svg">
<path fill-rule="evenodd" clip-rule="evenodd" d="M4.4443 1.6853C6.08879 0.58649 8.02219 0 10 0C10.5111 0 11.0222 0.0444443 11.5111 0.111111C10.476 0.850312 9.70234 1.8992 9.30185 3.10651C8.90136 4.31381 8.8947 5.61712 9.28282 6.82845C9.67094 8.03979 10.4338 9.09654 11.4613 9.84628C12.4889 10.596 13.728 11 15 11C15.9562 11.0022 16.899 10.7754 17.7496 10.3385C18.6001 9.90162 19.3337 9.2674 19.8889 8.48889C19.9556 8.97778 20 9.48889 20 10C20 11.9778 19.4135 13.9112 18.3147 15.5557C17.2159 17.2002 15.6541 18.4819 13.8268 19.2388C11.9996 19.9957 9.98891 20.1937 8.0491 19.8078C6.10929 19.422 4.32746 18.4696 2.92894 17.0711C1.53041 15.6725 0.578004 13.8907 0.192152 11.9509C-0.1937 10.0111 0.0043328 8.00042 0.761209 6.17316C1.51809 4.3459 2.79981 2.78412 4.4443 1.6853Z" fill="white" fill-opacity="0.75"/>
</svg>
