<svg width="25" height="28" viewBox="0 0 25 28" fill="none" xmlns="http://www.w3.org/2000/svg">
<path d="M25 6.24659V22.736C25 23.9405 24.5215 25.0957 23.6698 25.9474C22.818 26.7992 21.6628 27.2777 20.4583 27.2777H12.1522C10.9247 27.2777 9.76541 26.7867 8.9198 25.9138L0 16.8576C0 16.8576 1.43208 15.4528 1.47299 15.4392C1.68646 15.2491 1.95496 15.1321 2.23948 15.1051C2.52401 15.0781 2.80972 15.1426 3.0551 15.2891C3.09602 15.3028 7.95145 18.0851 7.95145 18.0851V4.54173C7.95145 4.08958 8.13106 3.65594 8.45079 3.33622C8.77051 3.0165 9.20415 2.83688 9.6563 2.83688C10.1085 2.83688 10.5421 3.0165 10.8618 3.33622C11.1815 3.65594 11.3612 4.08958 11.3612 4.54173V12.5068H12.4932V1.70486C12.4932 1.2527 12.6728 0.819063 12.9925 0.499341C13.3122 0.179618 13.7459 0 14.198 0C15.1528 0 15.9029 0.763775 15.9029 1.70486V12.5068H17.0486V2.83688C17.0486 1.8958 17.7987 1.13202 18.7534 1.13202C19.2056 1.13202 19.6392 1.31164 19.9589 1.63136C20.2786 1.95109 20.4583 2.38472 20.4583 2.83688V12.5068H21.5903V6.24659C21.5903 5.79443 21.7699 5.3608 22.0896 5.04108C22.4094 4.72135 22.843 4.54173 23.2951 4.54173C23.7473 4.54173 24.1809 4.72135 24.5007 5.04108C24.8204 5.3608 25 5.79443 25 6.24659Z" fill="white"/>
</svg>
