<svg width="20" height="23" viewBox="0 0 20 23" fill="none" xmlns="http://www.w3.org/2000/svg">
<path fill-rule="evenodd" clip-rule="evenodd" d="M10 0C9.01541 0 7.36748 0.370336 5.81624 0.78083C4.43261 1.15233 3.05797 1.55649 1.69345 1.99298C1.30389 2.11567 0.957027 2.34618 0.693026 2.65782C0.429025 2.96946 0.258676 3.34949 0.201697 3.75393C-0.650523 9.99611 1.32609 14.6216 3.72361 17.6825C4.74423 18.9959 5.95595 20.149 7.3184 21.1032C7.87019 21.484 8.38182 21.774 8.81611 21.9748C9.21768 22.1592 9.64602 22.3094 10 22.3094C10.354 22.3094 10.7838 22.1592 11.1839 21.9748C11.6182 21.774 12.1298 21.484 12.6816 21.1032C14.0446 20.1491 15.2568 18.996 16.2779 17.6825C18.6739 14.6216 20.6505 9.99611 19.7983 3.75393C19.7413 3.34949 19.571 2.96946 19.307 2.65782C19.043 2.34618 18.6961 2.11567 18.3065 1.99298C16.942 1.55648 15.5674 1.15232 14.1838 0.78083C12.6325 0.370336 10.9861 0 10 0ZM14.2447 9.45027C14.3844 9.31064 14.4628 9.12125 14.4628 8.92377C14.4628 8.72629 14.3844 8.5369 14.2447 8.39727C14.1051 8.25763 13.9157 8.17918 13.7182 8.17918C13.5208 8.17918 13.3314 8.25763 13.1917 8.39727L9.25635 12.3341L7.55191 10.6282C7.48277 10.5591 7.40069 10.5042 7.31035 10.4668C7.22001 10.4294 7.12319 10.4101 7.02541 10.4101C6.92763 10.4101 6.8308 10.4294 6.74047 10.4668C6.65013 10.5042 6.56805 10.5591 6.4989 10.6282C6.42976 10.6974 6.37492 10.7794 6.3375 10.8698C6.30008 10.9601 6.28082 11.0569 6.28082 11.1547C6.28082 11.2525 6.30008 11.3493 6.3375 11.4397C6.37492 11.53 6.42976 11.6121 6.4989 11.6812L8.72985 13.9122C8.79893 13.9814 8.88099 14.0364 8.97133 14.0738C9.06168 14.1113 9.15853 14.1306 9.25635 14.1306C9.35416 14.1306 9.45102 14.1113 9.54136 14.0738C9.63171 14.0364 9.71377 13.9814 9.78285 13.9122L14.2447 9.45027Z" fill="white" fill-opacity="0.69"/>
</svg>
