<svg width="15" height="25" viewBox="0 0 15 25" fill="none" xmlns="http://www.w3.org/2000/svg">
<path d="M13.8052 0.484102C13.6521 0.330648 13.4703 0.2089 13.2701 0.12583C13.0699 0.0427595 12.8553 0 12.6385 0C12.4218 0 12.2072 0.0427595 12.007 0.12583C11.8068 0.2089 11.6249 0.330648 11.4719 0.484102L0.38551 11.5705C0.263305 11.6924 0.166352 11.8373 0.100201 11.9968C0.0340497 12.1562 0 12.3272 0 12.4998C0 12.6725 0.0340497 12.8434 0.100201 13.0029C0.166352 13.1624 0.263305 13.3072 0.38551 13.4292L11.4719 24.5155C12.1178 25.1615 13.1592 25.1615 13.8052 24.5155C14.4511 23.8696 14.4511 22.8282 13.8052 22.1823L4.1293 12.5064L13.8183 2.81738C14.4511 2.17144 14.4511 1.13004 13.8052 0.484102Z" fill="white"/>
</svg>
