<svg width="25" height="31" viewBox="0 0 25 31" fill="none" xmlns="http://www.w3.org/2000/svg">
<path d="M21.5192 18.2758C23.4423 18.2758 25 19.8334 25 21.7565V23.0815H24.9904C24.925 24.5815 24.5135 26.4604 22.8308 27.995C20.9923 29.6738 17.8173 30.77 12.5 30.77C7.18077 30.77 4.00769 29.6738 2.16923 27.995C0.486538 26.4604 0.0750002 24.5796 0.0096156 23.0815H0V21.7546C0 19.8334 1.55769 18.2758 3.48077 18.2758H21.5192Z" fill="white"/>
<path d="M5.76923 1.92391C5.00418 1.92391 4.27047 2.22783 3.7295 2.7688C3.18853 3.30977 2.88462 4.04348 2.88462 4.80853V12.5008C2.88462 13.2659 3.18853 13.9996 3.7295 14.5406C4.27047 15.0815 5.00418 15.3855 5.76923 15.3855H19.2308C19.9958 15.3855 20.7295 15.0815 21.2705 14.5406C21.8115 13.9996 22.1154 13.2659 22.1154 12.5008V4.80853C22.1154 4.04348 21.8115 3.30977 21.2705 2.7688C20.7295 2.22783 19.9958 1.92391 19.2308 1.92391H13.4615V0.962375C13.467 0.834652 13.4458 0.707191 13.3994 0.588068C13.353 0.468946 13.2824 0.360759 13.192 0.270363C13.1016 0.179967 12.9934 0.109333 12.8743 0.0629372C12.7552 0.0165411 12.6277 -0.00460557 12.5 0.000836963C11.9692 0.000836963 11.5385 0.443145 11.5385 0.962375V1.92391H5.76923ZM6.73077 8.65468C6.73077 8.14465 6.93338 7.65551 7.29403 7.29486C7.65467 6.93422 8.14381 6.73161 8.65385 6.73161C9.16388 6.73161 9.65302 6.93422 10.0137 7.29486C10.3743 7.65551 10.5769 8.14465 10.5769 8.65468C10.5769 9.16471 10.3743 9.65386 10.0137 10.0145C9.65302 10.3752 9.16388 10.5778 8.65385 10.5778C8.14381 10.5778 7.65467 10.3752 7.29403 10.0145C6.93338 9.65386 6.73077 9.16471 6.73077 8.65468ZM14.4231 8.65468C14.4231 8.14465 14.6257 7.65551 14.9863 7.29486C15.347 6.93422 15.8361 6.73161 16.3462 6.73161C16.8562 6.73161 17.3453 6.93422 17.706 7.29486C18.0666 7.65551 18.2692 8.14465 18.2692 8.65468C18.2692 9.16471 18.0666 9.65386 17.706 10.0145C17.3453 10.3752 16.8562 10.5778 16.3462 10.5778C15.8361 10.5778 15.347 10.3752 14.9863 10.0145C14.6257 9.65386 14.4231 9.16471 14.4231 8.65468Z" fill="white"/>
</svg>
