<svg width="25" height="18" viewBox="0 0 25 18" fill="none" xmlns="http://www.w3.org/2000/svg">
<path d="M24.9999 16.2562C24.9999 16.9437 24.4424 17.5 23.7562 17.5H13.7437C13.4138 17.5 13.0975 17.3689 12.8642 17.1357C12.631 16.9024 12.4999 16.5861 12.4999 16.2562C12.4999 15.9263 12.631 15.61 12.8642 15.3767C13.0975 15.1435 13.4138 15.0125 13.7437 15.0125H23.7562C24.4437 15.0125 24.9999 15.5687 24.9999 16.2562Z" fill="white"/>
<path d="M25 8.74998C25 9.43748 24.4425 9.99373 23.7562 9.99373H1.24375C0.913887 9.99373 0.597534 9.86269 0.364286 9.62944C0.131038 9.39619 0 9.07984 0 8.74998C0 8.42011 0.131038 8.10376 0.364286 7.87051C0.597534 7.63726 0.913887 7.50623 1.24375 7.50623H23.7562C24.4437 7.50623 25 8.06373 25 8.74998Z" fill="white"/>
<path d="M23.7563 2.4875C24.0861 2.4875 24.4025 2.35646 24.6357 2.12321C24.869 1.88997 25 1.57361 25 1.24375C25 0.913887 24.869 0.597534 24.6357 0.364286C24.4025 0.131037 24.0861 9.83068e-09 23.7563 0H8.74377C8.58043 -4.86766e-09 8.4187 0.0321705 8.2678 0.0946748C8.1169 0.157179 7.97979 0.248793 7.8643 0.364286C7.74881 0.479779 7.65719 0.616889 7.59469 0.767788C7.53219 0.918686 7.50002 1.08042 7.50002 1.24375C7.50002 1.40708 7.53219 1.56881 7.59469 1.71971C7.65719 1.87061 7.74881 2.00772 7.8643 2.12321C7.97979 2.23871 8.1169 2.33032 8.2678 2.39282C8.4187 2.45533 8.58043 2.4875 8.74377 2.4875H23.7563Z" fill="white"/>
</svg>
