<svg xmlns="http://www.w3.org/2000/svg" viewBox="0 0 800 800"><defs><style>.cls-1{fill:#8fd8e5;}.cls-2{fill:#343434;}.cls-3{fill:none;stroke:#343434;stroke-linecap:round;stroke-miterlimit:10;stroke-width:75px;}</style></defs><g id="Layer_4" data-name="Layer 4"><path class="cls-1" d="M715.41,533q-7.63,8.25-15,16.75c-6.49,7.52-12.92,15-19,22.85-3.12,4-6.29,6-9.82,7l-19-38.65-20.91-42.47-.56-1.08c-12.72-24.85-24.5-48.88-34.81-72.26,0-.09-.06-.15-.09-.24L544.34,302.53,580.65,218s4.52,3.12,6.13,7.08l53.81,113.67s0,.09.06.12C665.8,396.75,691.53,454,718,511.37,721.87,519.85,722,525.88,715.41,533Z"/><path class="cls-2" d="M718,511.37c-12.33-.54-161.49-1.83-173.83-1.69-38.85.48-72,27.66-75.24,60.82-.89,9.27,1.27,13,11.29,13,28.91,0,57.82,1.6,86.73,1.25,17.72-.22,87.73-.64,104.79-4.83,0,0,4.42-.56,10.21-7.82s29.14-34.07,31-36.35c3.79-4.78,7.49-6.59,7.8-14.88S718,511.37,718,511.37Z"/><path class="cls-2" d="M366.5,475c24.05-19.68,38.26-48.51,51.63-75.94,27.67-56.81,54-114.29,80.36-171.69,3.91-8.49,8.43-12.48,18.09-12.1,17.39.68,34.9.74,52.29,0,5-.2,8.75.68,11.78,2.73l-35.84,83.45-.47,1.12c-10.66,25.9-19.39,50.08-30.52,73.16C494,416.82,475.61,459.08,451.2,497.44c-16.48,25.87-38.82,40.06-63.43,53.4"/><path class="cls-2" d="M248.76,216.77c28.91-.91,76.9-1,105.81-1.54,10-.17,12.24,3.5,11.54,12.78-2.59,33.22-35.22,61-74.05,62.27-12.34.38-24.72,1.57-37.06,1.28"/><path class="cls-3" d="M256.7,254c-65.11-.11-129.69,56.86-138,122.11-8.37,66,25.63,131.05,84.22,151.78C270.87,552,337.59,547.7,395.59,499.77"/></g></svg>