<svg xmlns="http://www.w3.org/2000/svg" viewBox="0 0 110.11 66.36">
    <defs>
        <style>
            .cls-1 {
                fill: #2b2c33;
            }
        </style>
    </defs>
    <g id="Layer_2" data-name="Layer 2">
        <g id="Layer_2-2" data-name="Layer 2">
            <path class="cls-1"
                d="M43.57,61.88l-.07.06-2-.18c-.89-.07-1.73-.13-2.5-.17L39,61.51v-.46l.07-.07.64,0c.26,0,.4-.08.4-.25a2.89,2.89,0,0,0-.21-.71c-.23-.63-.35-.95-.59-1.59l-2.06-.21-1.69-.17-.32.86a5.45,5.45,0,0,0-.37,1.23c0,.19.12.31.35.37l.74.14.07.08v.47l-.07.06L34.21,61l-1.48-.13-.08-.08v-.47l.09-.07c.5,0,.8,0,.92-.18s.54-1.12,1.28-2.9,1.14-2.74,1.91-4.57L37.49,51l1,.1c1.55,3.8,2.33,5.68,3.88,9.44.15.36.28.56.41.62a2.16,2.16,0,0,0,.69.13l.07.09Zm-4.64-4.3c-.62-1.59-.93-2.39-1.56-4-.6,1.48-.9,2.21-1.49,3.68.4.06.91.12,1.55.18S38.55,57.56,38.93,57.58Z" />
            <path class="cls-1"
                d="M54.15,58.93a3.49,3.49,0,0,1-.69,2.12,3.54,3.54,0,0,1-1.58,1.18,5.51,5.51,0,0,1-2.13.3,6.94,6.94,0,0,1-3-.82l-.09-.17a10.93,10.93,0,0,0,.2-2.38l.08-.07.46,0,.07.08v.17a3.47,3.47,0,0,0,.09,1.08,1.94,1.94,0,0,0,.94.85,3.28,3.28,0,0,0,1.48.4,2,2,0,0,0,2-.95,2.19,2.19,0,0,0,.28-1.07,1.43,1.43,0,0,0-.78-1.36A5.24,5.24,0,0,0,50.23,58a6.53,6.53,0,0,1-2.57-.85,2.58,2.58,0,0,1-.93-2.17,2.86,2.86,0,0,1,1-2.34,4.25,4.25,0,0,1,3-.83,6.32,6.32,0,0,1,2.77.6l.05.18a11.85,11.85,0,0,0-.21,2.09l-.08.07h-.46l-.08-.07a9.17,9.17,0,0,0-.07-1.15,1.83,1.83,0,0,0-.79-.6,3.61,3.61,0,0,0-1.25-.28,2.24,2.24,0,0,0-1.56.47,1.59,1.59,0,0,0-.53,1.25,1.42,1.42,0,0,0,.61,1.26,5.83,5.83,0,0,0,1.86.54l.86.17a4.42,4.42,0,0,1,.8.23,2.26,2.26,0,0,1,1.11.86A2.83,2.83,0,0,1,54.15,58.93Z" />
            <path class="cls-1"
                d="M68.08,61.88,68,62l-2,.07c-.9,0-1.73.1-2.5.17l-.07-.08v-.46l.08-.08.63-.06c.27,0,.41-.13.41-.31a2.45,2.45,0,0,0-.21-.67c-.24-.61-.36-.91-.59-1.52l-2.07.06-1.7.06c-.12.36-.19.54-.32.9a5.74,5.74,0,0,0-.36,1.28c0,.19.11.29.34.32s.38,0,.75,0l.07.08v.46l-.07.08H58.69l-1.48.06-.08-.06v-.48l.08-.07c.51,0,.82-.14.93-.31s.55-1.19,1.29-3.07,1.15-2.89,1.91-4.82c.15-.38.36-.94.65-1.7l1,0c1.55,3.58,2.33,5.37,3.88,8.92.15.34.29.52.41.56a2,2,0,0,0,.69,0l.07.08Zm-4.64-3.69c-.63-1.5-.94-2.26-1.57-3.77l-1.5,3.87c.4,0,.92,0,1.56,0S63.05,58.22,63.44,58.19Z" />
            <path class="cls-1"
                d="M79,52.83a3.25,3.25,0,0,1-1,2.47,3.92,3.92,0,0,1-2.32,1.11,3.7,3.7,0,0,1-.88,0,3.51,3.51,0,0,0-.26-.5l.16-.17a1.83,1.83,0,0,0,.56,0,1.66,1.66,0,0,0,1.18-.65,2.39,2.39,0,0,0,.44-1.52c0-1.36-.61-2-1.83-1.84l-.87.18a17.61,17.61,0,0,0-.07,2.4V58.2a14.91,14.91,0,0,0,.1,2.26.28.28,0,0,0,.24.25l1,0,.08.07v.48l-.07.08c-.66,0-1.46.11-2.39.2s-1.8.17-2.25.24l-.08-.06V61.2l.09-.09c.49-.07.77-.12.84-.14a.35.35,0,0,0,.25-.29A15.43,15.43,0,0,0,72,58.4V54.53a14.75,14.75,0,0,0-.1-2.25.28.28,0,0,0-.25-.25,5.89,5.89,0,0,0-.85,0L70.74,52v-.48l.09-.08c.47,0,1.21-.06,2.19-.15.41,0,1-.1,1.77-.2l1.33-.16c1.33-.15,2.19.08,2.59.71A2.26,2.26,0,0,1,79,52.83Z" />
            <path class="cls-1"
                d="M48.27,34.13a1.77,1.77,0,0,1-1.33.57,1.86,1.86,0,0,1-1.58-.84,4.27,4.27,0,0,1-.6-2.49,4.58,4.58,0,0,1,.56-2.48A1.76,1.76,0,0,1,46.88,28c1,0,1.72.69,2,2.06l1.66-.16a3.8,3.8,0,0,0-1.24-2.38,4,4,0,0,0-5.41.47,5.1,5.1,0,0,0-1.08,3.37,5.93,5.93,0,0,0,.46,2.37,4,4,0,0,0,1.3,1.69,3.62,3.62,0,0,0,2.21.63,3.78,3.78,0,0,0,2.61-.88A3.47,3.47,0,0,0,50.56,33l-1.66-.17A2.14,2.14,0,0,1,48.27,34.13Z" />
            <path class="cls-1"
                d="M57.37,26.86v5.83a1.94,1.94,0,0,1-.5,1.55,2.08,2.08,0,0,1-1.34.4,2.18,2.18,0,0,1-1.27-.37,1.82,1.82,0,0,1-.55-1.58V26.86H51.88v6a4,4,0,0,0,.34,1.77,2.46,2.46,0,0,0,1.13,1.1,4.3,4.3,0,0,0,2,.4,4.09,4.09,0,0,0,2-.46,2.56,2.56,0,0,0,1.13-1.1,4.66,4.66,0,0,0,.29-1.83V26.86Z" />
            <path class="cls-1" 
                d="M62.62,34.53V32h3.69V30.67H62.62V28.21h4.59V26.86H60.83v9.08h6.45V34.53Z" />
            <path class="cls-1"
                d="M0,59.08H12.47v3.65l.84.14q5.83,1,11.69,1.66h0c1.76.21,3.51.41,5.26.58l.2,0c1.52.15,3,.29,4.56.41l.32,0c1.35.11,2.69.21,4,.3l.4,0c1.23.08,2.45.14,3.68.2l.45,0q1.71.08,3.42.12l.49,0,3.26.08h.51c1.06,0,2.12,0,3.18,0h.52c1.06,0,2.12,0,3.18,0H59l3.26-.07.49,0q1.71,0,3.42-.12l.45,0c1.23-.06,2.46-.12,3.68-.2l.4,0c1.35-.08,2.7-.19,4.05-.29l.32,0c1.52-.12,3-.26,4.55-.41l.21,0q2.63-.25,5.25-.57h0q5.87-.71,11.7-1.67l.83-.15V59.08h12.45l-5.5-9.33,5.49-9.47H84.74c.23-.75.43-1.53.6-2.31.06-.23.11-.46.16-.7.16-.82.29-1.66.38-2.5,0-.24.06-.48.08-.72.08-.83.12-1.67.13-2.52,0-.12,0-.24,0-.36s0-.24,0-.36c0-.85,0-1.7-.13-2.53,0-.24,0-.48-.08-.72-.09-.84-.22-1.67-.38-2.49,0-.24-.1-.47-.16-.71-.18-.83-.39-1.64-.64-2.44-.07-.24-.15-.46-.23-.69-.27-.8-.57-1.59-.9-2.36-.09-.22-.19-.44-.29-.66-.36-.77-.74-1.52-1.15-2.26l-.36-.62c-.43-.73-.89-1.43-1.38-2.12-.13-.2-.27-.4-.41-.59-.51-.68-1-1.33-1.6-2-.16-.18-.31-.36-.48-.54-.57-.62-1.16-1.22-1.78-1.79l-.54-.48c-.63-.56-1.28-1.1-2-1.61L73,5.81c-.69-.49-1.39-1-2.12-1.39l-.62-.36c-.74-.42-1.49-.81-2.26-1.17l-.65-.29C66.61,2.26,65.82,2,65,1.68l-.68-.23q-1.22-.37-2.46-.66l-.7-.16c-.82-.17-1.66-.29-2.51-.4L58,.15C57.12.07,56.27,0,55.42,0H54.7c-.85,0-1.7,0-2.54.12L51.45.2q-1.29.15-2.52.39l-.7.14c-.84.19-1.66.4-2.47.65l-.68.22c-.81.27-1.61.57-2.39.9L42,2.8c-.78.35-1.54.74-2.28,1.15-.21.12-.42.23-.62.36-.74.43-1.45.89-2.15,1.38l-.58.42c-.68.51-1.34,1-2,1.61l-.53.47c-.63.57-1.23,1.18-1.81,1.8l-.48.53q-.86,1-1.62,2l-.42.58c-.49.7-1,1.41-1.4,2.14l-.36.62q-.63,1.11-1.17,2.28l-.29.65c-.34.78-.64,1.58-.92,2.39-.07.23-.16.45-.23.68-.25.81-.47,1.64-.65,2.48-.06.23-.11.46-.16.69-.17.83-.29,1.68-.39,2.53,0,.24-.06.47-.08.71-.08.84-.12,1.7-.13,2.56,0,.12,0,.24,0,.36s0,.23,0,.35c0,.86,0,1.72.13,2.56,0,.24.05.47.08.71.1.85.22,1.7.39,2.53.05.24.1.47.16.7.17.76.36,1.52.59,2.26H0l5.49,9.47Zm63.26-40.5c.43.28.84.57,1.24.89l0,0c.39.32.77.66,1.13,1l0,0c.36.36.69.74,1,1.14,0,0,0,0,0,0,.32.39.62.81.9,1.23,0,0,0,0,0,0,.28.43.53.87.77,1.32,0,0,0,0,0,.05.23.45.43.91.62,1.39,0,0,0,0,0,0a13.64,13.64,0,0,1,.47,1.45s0,0,0,0a15.15,15.15,0,0,1,.31,1.49.43.43,0,0,0,0,.05,12.62,12.62,0,0,1,.15,1.52.06.06,0,0,1,0,0c0,.26,0,.51,0,.77s0,.51,0,.76a.09.09,0,0,1,0,.05,12.45,12.45,0,0,1-.15,1.51s0,0,0,0c-.08.51-.19,1-.31,1.49l0,0a14.42,14.42,0,0,1-.47,1.45v0c-.19.48-.39,1-.62,1.4l0,0c-.24.45-.49.9-.77,1.32a.08.08,0,0,1,0,0c-.28.43-.58.84-.9,1.24l0,0c-.32.39-.65.77-1,1.13l0,0c-.36.35-.74.69-1.13,1l0,0c-.4.32-.81.62-1.24.9l0,0a12.23,12.23,0,0,1-1.32.76l0,0a14.36,14.36,0,0,1-1.39.62l0,0a14.42,14.42,0,0,1-1.45.47h0a14,14,0,0,1-1.49.32h0c-.5.08-1,.13-1.52.16h0c-.25,0-.5,0-.76,0s-.51,0-.76,0h0c-.51,0-1-.08-1.52-.16h0a14.78,14.78,0,0,1-1.5-.32h0a13.64,13.64,0,0,1-1.45-.47l-.05,0a14.36,14.36,0,0,1-1.39-.62l0,0a12.23,12.23,0,0,1-1.32-.76l0,0c-.42-.28-.84-.58-1.23-.9l0,0c-.39-.32-.77-.66-1.13-1l0,0a13.82,13.82,0,0,1-1-1.14l0,0c-.32-.4-.61-.81-.89-1.24l0,0c-.27-.43-.52-.87-.76-1.32a.05.05,0,0,0,0,0c-.23-.46-.43-.92-.62-1.4v0a12.88,12.88,0,0,1-.47-1.45l0,0a14.57,14.57,0,0,1-.31-1.49s0,0,0,0A15.15,15.15,0,0,1,40.06,32v-.05c0-.26,0-.51,0-.76s0-.51,0-.77v0a15,15,0,0,1,.16-1.52s0,0,0-.05a15.15,15.15,0,0,1,.31-1.49s0,0,0,0A12.41,12.41,0,0,1,41,25.8s0,0,0,0c.19-.48.39-.94.62-1.39,0,0,0,0,0-.05.24-.45.49-.89.76-1.32l0,0c.28-.43.58-.84.89-1.23l0,0a13.82,13.82,0,0,1,1-1.14l0,0c.36-.36.74-.7,1.13-1l0,0c.4-.32.81-.61,1.24-.89l0,0a14.17,14.17,0,0,1,1.32-.76l0,0a14.36,14.36,0,0,1,1.39-.62l.05,0c.47-.18.95-.33,1.45-.47h.05a14,14,0,0,1,1.49-.31h0c.5-.08,1-.13,1.52-.16h0c.25,0,.5,0,.76,0s.51,0,.76,0h0c.51,0,1,.08,1.52.16h0a14,14,0,0,1,1.49.31h0c.5.14,1,.29,1.45.47l0,0a14.36,14.36,0,0,1,1.39.62l0,0a14.17,14.17,0,0,1,1.32.76Zm8.91-6.14a4.89,4.89,0,0,1,0,.55,4.19,4.19,0,0,1-3,3.47,4.23,4.23,0,0,1-1.19.19,3.7,3.7,0,0,1-.66-.07,3.17,3.17,0,0,1-.69-.17,4.08,4.08,0,0,1-1.2-.64,4.31,4.31,0,0,1-.46-.39,4.46,4.46,0,0,1-.83-1.22,4.07,4.07,0,0,1-.3-1.1,3.1,3.1,0,0,1-.07-.62,4.19,4.19,0,0,1,1.73-3.38,4.11,4.11,0,0,1,2.25-.8,1.81,1.81,0,0,1,.23,0,3.86,3.86,0,0,1,.84.09,4.22,4.22,0,0,1,2.39,1.45,4.14,4.14,0,0,1,.88,1.78A4.33,4.33,0,0,1,72.17,12.44Zm4.6,5.42c0,.07,0,.14,0,.21a2.45,2.45,0,0,1-2.43,2.24,2.35,2.35,0,0,1-1.15-.3,2.32,2.32,0,0,1-.79-.67,2.45,2.45,0,0,1-.48-1.16,3.16,3.16,0,0,1,0-.32,2.39,2.39,0,0,1,.67-1.67l.15-.15a2.38,2.38,0,0,1,2.79-.32,2.22,2.22,0,0,1,.77.66A2.4,2.4,0,0,1,76.77,17.86Zm21,26-5.52-.77-2.15-.3-3.45-.49h20l-4.34,7.47,4.32,7.33h-9V43.89l-.29,0ZM14.47,46.27c1.54.26,3.07.51,4.61.75l.58.09c1.94.29,3.89.55,5.83.79.33.05.66.08,1,.12l.66.08,1.77.21.85.1.51.05.29,0,.2,0,.27,0,.23,0,.5.05c1,.1,1.95.2,2.93.28L36,49l2.17.17,1.34.1,1.65.09,1.36.08,1.27.06,1.37.07,1,0,1.37.05.83,0,1.36.05h8.59l1.35,0h.72l1.35,0,.83,0,1.37,0,1,0,1.37-.07,1.26-.07L69,49.32l1.64-.09,1.34-.1L74.1,49l1.3-.1c1-.08,1.95-.18,2.93-.28h0l.51,0,.25,0,.24,0h.18l.32,0,.5,0,.6-.08c.68-.07,1.37-.15,2-.24l.6-.07,1-.11c1.94-.24,3.89-.5,5.83-.79L91,47c1.54-.24,3.09-.48,4.64-.75V61l-.32,0L94,61.29l-1.36.21q-4.52.69-9.06,1.21l-.18,0c-1.62.19-3.23.36-4.84.51l-.34,0L74,63.63l-.45,0c-1.22.09-2.45.18-3.68.25l-.52,0-3.33.17-.56,0-3.1.1-.6,0q-1.47,0-2.94.06h-.61l-2.87,0h-.62l-2.87,0h-.61c-1,0-2,0-2.94-.07h-.6c-1,0-2.06-.06-3.1-.11l-.56,0c-1.11,0-2.22-.1-3.33-.17-.17,0-.35,0-.52,0-1.22-.07-2.45-.16-3.68-.25l-.44,0c-1.39-.1-2.78-.22-4.17-.35l-.34,0c-1.61-.16-3.23-.33-4.84-.51l-.18,0q-4.53-.53-9-1.2l-1.36-.21-1.37-.21-.32,0Zm-2-2.39v13.2h-9l4.33-7.33L3.49,42.28H23.64L20,42.8l-2.11.29-5.36.75.12.07Z" />
        </g>
    </g>
</svg>