<svg width="53" height="36" viewBox="0 0 53 36" fill="none" xmlns="http://www.w3.org/2000/svg">
<path d="M52.0714 14.121C51.7404 13.5694 48.4738 12.1584 48.4738 12.1584C49.042 11.865 49.4303 11.8043 49.4303 10.5908C49.4303 9.26694 49.4237 8.82565 48.5411 8.82565H45.547C45.5349 8.79918 45.5216 8.7716 45.5095 8.74402C43.5767 4.52315 43.3174 3.45635 40.4347 2.01997C36.568 0.0970819 29.3188 0 26.477 0C23.6351 0 16.3859 0.0970819 12.5225 2.01997C9.63651 3.45414 9.70822 4.19218 7.44775 8.74402C7.44775 8.75615 7.42458 8.78815 7.40362 8.82565H4.40621C3.53026 8.82565 3.52364 9.26694 3.52364 10.5908C3.52364 11.8043 3.91197 11.865 4.48012 12.1584C4.48012 12.1584 1.32385 13.6798 0.882565 14.121C0.441283 14.5623 0 17.6513 0 22.9467C0 28.2421 0.441283 33.5375 0.441283 33.5375H1.75851C1.75851 35.082 1.98577 35.3026 2.6477 35.3026H11.4734C12.1353 35.3026 12.3559 35.082 12.3559 33.5375H40.598C40.598 35.082 40.8186 35.3026 41.4806 35.3026H50.5269C50.9682 35.3026 51.1888 34.9717 51.1888 33.5375H52.5126C52.5126 33.5375 52.9539 28.1318 52.9539 22.9467C52.9539 17.7616 52.4023 14.6727 52.0714 14.121ZM12.0536 19.0789C10.0444 19.2985 8.02487 19.4112 6.00365 19.4164C3.7509 19.4164 3.67368 19.561 3.51482 18.1544C3.45506 17.5106 3.47395 16.8619 3.57108 16.2227L3.64058 15.8862H3.97154C5.29539 15.8862 6.53871 15.9424 8.88633 16.6342C10.0804 16.9924 11.2034 17.5545 12.2059 18.2956C12.6869 18.6442 12.7972 18.9752 12.7972 18.9752L12.0536 19.0789ZM39.3205 27.0219L38.8329 28.2421H14.121C14.121 28.2421 14.1641 28.1748 13.5694 27.0087C13.1282 26.146 13.6798 25.5944 14.5524 25.2811C16.2425 24.6721 21.1816 22.9467 26.477 22.9467C31.7724 22.9467 36.8096 24.4338 38.4468 25.2811C39.0535 25.5944 39.807 25.815 39.3205 27.0286V27.0219ZM10.9681 11.9599C10.6117 11.9804 10.2546 11.983 9.89797 11.9676C10.1859 11.4557 10.3459 10.8853 10.6272 10.2896C11.5098 8.41416 12.5192 6.29159 14.3163 5.39689C16.9133 4.10393 22.2958 3.52144 26.477 3.52144C30.6581 3.52144 36.0407 4.09952 38.6376 5.39689C40.4347 6.29159 41.4398 8.41526 42.3267 10.2896C42.6103 10.8909 42.768 11.4656 43.0637 11.9808C42.843 11.993 42.5893 11.9808 41.9836 11.9599H10.9681ZM49.3288 18.15C49.0927 19.5268 49.3133 19.4164 46.9503 19.4164C44.9291 19.4112 42.9095 19.2985 40.9003 19.0789C40.5859 19.0226 40.4965 18.492 40.748 18.2956C41.7454 17.5463 42.87 16.9834 44.0676 16.6342C46.4152 15.9424 47.7369 15.8498 49.042 15.8961C49.1296 15.8994 49.2129 15.9351 49.2759 15.9962C49.3388 16.0573 49.3769 16.1395 49.3828 16.2271C49.4452 16.8692 49.427 17.5167 49.3288 18.1544V18.15Z" fill="white"/>
</svg>
