<svg xmlns="http://www.w3.org/2000/svg" xmlns:xlink="http://www.w3.org/1999/xlink" version="1.1" x="0px" y="0px" viewBox="0 0 50 50" style="enable-background:new 0 0 50 50;" xml:space="preserve"><defs><style>*{fill:#FFFFFF;}</style></defs><g><path d="M32.4481163,17.6063671v-0.0500488l-0.5700092-0.0799561c-0.7099609-0.0900269-1.4599609-0.0400391-2.2199707,0.1599731   c-0.4199829,0.1099854-0.8099976,0.2200317-1.1799927,0.3200073l-0.6500244,0.1799927   c-0.1699829,0.0400391-0.3300171,0.0800171-0.4799805,0.1300049l-0.1000366,0.0200195   c-1.1999512,0.3399658-2.4199829,0.4899902-3.6099854,0.4599609c-1.1699829,0.0300293-2.3699951-0.1199951-3.5700073-0.4599609   l-0.0799561-0.0200195c-0.1600342-0.0499878-0.3200073-0.0899658-0.4900513-0.1300049l-0.6699829-0.1900024   c-0.3699951-0.0899658-0.75-0.2000122-1.1699829-0.3099976c-0.7600098-0.2000122-1.5-0.25-2.2200317-0.1599731   l-0.5699463,0.0799561v0.0400391c-3.6700439,0.9500122-5.0900269,5.9400024-5.1100464,8.9799805   c-0.0299683,0.4400024-0.2299805,4.3500366,1.210022,5.9000225c0.4000244,0.4299927,0.9199829,0.6599731,1.4799805,0.6699829   c0.4500122-0.0299683,0.8599854-0.1699829,1.1799927-0.4899902c0.1300049-0.1199951,0.210022-0.2299805,0.2600098-0.3200073   c0.0700073-0.0999756,0.1900024-0.1799927,0.3300171-0.1900024c0.1799927,0.0100098,0.460022,0.1799927,0.7399902,0.6900024   c1.7600098,2.8300171,4.7999878,4.6400146,8.1099854,4.8400269l0.4000244,0.0199585l0.7799683-0.0199585   c3.3200073-0.2000122,6.3500366-2.0100098,8.1400166-4.8800049c0.25-0.4700317,0.5400391-0.6400146,0.7200317-0.6500244   c0.1199951-0.0100098,0.25,0.0900269,0.3200073,0.1900024c0.0499878,0.0900269,0.1299438,0.2000122,0.2599487,0.3200073   c0.3200073,0.3200073,0.7400513,0.4699707,1.1800537,0.4899902c0.5699463-0.0100098,1.0799561-0.2399902,1.4799805-0.6699829   c1.4400024-1.5499859,1.2399902-5.4600201,1.2199707-5.8599834C37.5381432,23.5563183,36.1381187,18.6163769,32.4481163,17.6063671   z M35.3981285,31.5863476c-0.1599731,0.1799927-0.3300171,0.25-0.539978,0.2600098   c-0.1400146-0.0100098-0.2399902-0.0900269-0.2800293-0.1400146l-0.0599976-0.0800171   c-0.3499756-0.5299683-0.9199829-0.8299561-1.4799805-0.7799683c-0.7000122,0.0299683-1.3599873,0.5200195-1.7800312,1.2999859   c-1.539978,2.4700317-4.1900024,4.0499878-7.0999756,4.2299805l-0.6500244,0.0200195l-0.3499756-0.0200195   c-2.9100342-0.1799927-5.5599976-1.7599487-7.0800171-4.1900024c-0.4400024-0.8199444-1.0999756-1.3099957-1.7999878-1.3399639   h-0.0800171c-0.5499878,0-1.0599976,0.2799683-1.3999634,0.7799683l-0.0500488,0.0800171   c-0.0499878,0.0499878-0.1599731,0.1199951-0.289978,0.1400146c-0.210022-0.0100098-0.3800049-0.0800171-0.539978-0.2600098   c-0.7999878-0.8499756-0.960022-3.4799805-0.8600464-4.960022c0.0200195-3,1.4500122-7.4199829,4.460022-7.8399658   l0.6500244-0.0100098v-0.039978c0.3800049,0,0.7699585,0.0599976,1.1599731,0.1599731   c0.4199829,0.1099854,0.7999878,0.210022,1.1500244,0.3099976l0.6900024,0.1799927   c0.1900024,0.0499878,0.3699951,0.1000366,0.539978,0.1500244l0.0999756,0.0299683   c1.2900391,0.3500366,2.5800171,0.5200195,3.8300171,0.4800415c1.2900391,0.039978,2.5800171-0.1300049,3.8800049-0.4800415   l0.0900269-0.0299683c0.1799927-0.0499878,0.3499756-0.1000366,0.5499878-0.1500244l0.6599731-0.1799927   c0.3600464-0.0999756,0.75-0.2000122,1.1700439-0.3099976c0.5299683-0.1400146,1.039978-0.1799927,1.5299683-0.1500244   l0.2000122,0.0300293c3.0999775,0.4299927,4.5200214,4.8499756,4.5499897,7.8800049   C36.3581505,28.1063671,36.1981163,30.736372,35.3981285,31.5863476z"/><path d="M17.3254337,24.2306347c-1.4609375,0-2.7314453,1.2324219-3.0908203,2.9960938   c-0.0664062,0.3251953,0.1435547,0.6416016,0.4677734,0.7080078c0.0410156,0.0078125,0.0810547,0.0126953,0.1210938,0.0126953   c0.2792969,0,0.5292969-0.1962891,0.5869141-0.4804688c0.2441406-1.1992188,1.03125-2.0371094,1.9150391-2.0371094   c0.8798828,0,1.6650391,0.8378906,1.9082031,2.0361328c0.0654297,0.3261719,0.3857422,0.53125,0.7070312,0.46875   c0.3251953-0.0654297,0.5351562-0.3828125,0.46875-0.7070312C20.0510197,25.4630566,18.7834415,24.2306347,17.3254337,24.2306347z"/><path d="M29.9914494,24.2306347c-1.4609375,0-2.7314453,1.2324219-3.0898438,2.9970703   c-0.0664062,0.3242188,0.1435547,0.6416016,0.46875,0.7070312c0.3164062,0.0615234,0.640625-0.1435547,0.7070312-0.46875   c0.2431641-1.1982422,1.0302734-2.0361328,1.9140625-2.0361328c0.8798828,0,1.6650391,0.8378906,1.9091797,2.0371094   c0.0576172,0.2841797,0.3076191,0.4804688,0.586916,0.4804688c0.0400391,0,0.0800781-0.0048828,0.1210938-0.0126953   c0.3242188-0.0664062,0.5341797-0.3828125,0.4677734-0.7080078C32.7170372,25.4630566,31.4484806,24.2306347,29.9914494,24.2306347   z"/><path d="M40.3309288,21.9611645c-0.0010376-0.0049438-0.00177-0.0098877-0.0028076-0.0148315   c-1.1099854-5.3900146-3.25-10.8299561-6.7199707-11.4400024c-0.7900391-0.1499634-2.2600117-0.1199951-3.0500507,0.5499878   c-0.0294189,0.02948-0.0588989,0.0498657-0.0883179,0.0883789c-2.2434082-0.583313-3.9486694-0.8828125-6.5379028-0.8828125   c-2.7733765,0-4.6622314,0.3528442-6.9786987,0.9992676c-0.0496826-0.0682983-0.1170044-0.1365356-0.1950684-0.204834   c-0.7999878-0.6699829-2.2600098-0.6899414-3.0499878-0.5599976c-3.460022,0.6100464-5.5999756,6.0200195-6.7199702,11.3900146   c-0.0016479,0.0082397-0.0029297,0.0162964-0.0045776,0.0245361c-1.7896118,0.5907593-3.0546267,2.4954834-3.0546267,4.7318726   c0,1.7509766,0.8084109,3.3624268,2.0791628,4.2367554v0.0168457c0.1000366,5.2299786,2.9200435,8.1400127,9.1199951,9.3499737   c-0.2799683,0.9900513-0.8800049,2.5100098-1.789978,3.1800537c-0.1900024,0.1299438-0.289978,0.3499756-0.2700195,0.5799561   c0.0200195,0.2300415,0.1600342,0.4299927,0.3699951,0.5300293c0.0500488,0.0199585,0.5200195,0.2399902,1.2900391,0.2399902   c1.3200073,0,3.5499878-0.6400146,6.0899658-3.9799805c0.6500244,0.0499878,2.0200195,0.1499634,2.8500366,0.1599731   c12.4400043-0.0899658,17.5499897-3.0299683,17.6399555-10.1599712v-0.0227661   c1.1787109-0.8959961,1.916748-2.4523315,1.916748-4.1308594C43.2248497,24.4730053,42.0359459,22.6104565,40.3309288,21.9611645z    M30.0181217,12.3701611v0.3861694c0,0.3800049-0.3099976,0.6900024-0.6900024,0.6900024H17.9781437   c-0.3800049,0-0.6799927-0.3099976-0.6799927-0.6900024v-0.2425537c2.2087402-0.6159668,4.0067749-0.9511108,6.633728-0.9511108   C26.332819,11.5626659,27.9408512,11.8361645,30.0181217,12.3701611z M5.2297311,26.6427441   c0-1.3205566,0.5849609-2.5163574,1.4595337-3.152771c-0.0003662,0.0021362-0.0007935,0.0042114-0.0011597,0.0063477   c-0.3599854,2.0500488-0.5699463,4.0300293-0.6399536,5.6500244c-0.000061,0.0010376-0.000061,0.0019531-0.0001221,0.0029907   C5.5358224,28.4865551,5.2297311,27.5971508,5.2297311,26.6427441z M23.6581364,39.656353   c-1.0300293-0.0100098-3.0700073-0.1900024-3.0900269-0.1900024c-0.2199707-0.0200195-0.4400024,0.0800171-0.5799561,0.2600098   c-2.0800171,2.8499756-3.8400269,3.5899658-4.9000244,3.7199707c1.0599976-1.4899902,1.460022-3.4799805,1.4799805-3.5899658   c0.0300293-0.1700439-0.0100098-0.3500366-0.1099854-0.4899902c-0.0999756-0.1500244-0.25-0.2400513-0.4199829-0.2700195   c-6.1500244-1.0499878-8.6799927-3.460022-8.7300415-8.3099957c-0.0699463-6.0400391,2.2000117-18.2300415,6.6300044-19   c0.1900024-0.0400391,0.3900146-0.0499878,0.6000366-0.0499878c0.5700073,0,1.1499634,0.1199951,1.3800049,0.3199463   c0.0799561,0.0600586,0.0799561,0.0900269,0.0799561,0.1100464v0.5899658c0,1.1000366,0.8900146,1.9899902,1.9800415,1.9899902   h11.3499756c1.1000366,0,1.9899902-0.8899536,1.9899902-1.9899902v-0.5899658c0-0.0200195,0-0.0499878,0.0700073-0.1100464   c0.3200073-0.2699585,1.2700214-0.3999634,1.9899921-0.2699585c4.4200439,0.7699585,6.7000122,12.9599609,6.6300049,19   C39.9481163,36.0363579,37.1381187,39.5563164,23.6581364,39.656353z M41.2582359,28.9390697   c-0.000061-0.0009155-0.000061-0.00177-0.0001221-0.0027466c-0.0795288-1.5322266-0.2784424-3.3717041-0.6054688-5.2813721   c0.7658081,0.6643677,1.2714233,1.7676392,1.2714233,2.987793C41.9240685,27.4987621,41.6775475,28.3033276,41.2582359,28.9390697z   "/><path d="M43.9269981,5.2882514c-0.359375,0-0.6503906,0.2910156-0.6503906,0.6503906v1.3183594   c0,0.359375,0.2910156,0.6503906,0.6503906,0.6503906s0.6503906-0.2910156,0.6503906-0.6503906V5.938642   C44.5773888,5.579267,44.2863731,5.2882514,43.9269981,5.2882514z"/><path d="M43.9269981,9.7052441c-0.359375,0-0.6503906,0.2910156-0.6503906,0.6503906v1.2373047   c0,0.359375,0.2910156,0.6503906,0.6503906,0.6503906s0.6503906-0.2910156,0.6503906-0.6503906v-1.2373047   C44.5773888,9.9962597,44.2863731,9.7052441,43.9269981,9.7052441z"/><path d="M46.7541466,8.1154003h-1.3183594c-0.359375,0-0.6503906,0.2910156-0.6503906,0.6503906   s0.2910156,0.6503906,0.6503906,0.6503906h1.3183594c0.359375,0,0.6503906-0.2910156,0.6503906-0.6503906   S47.1135216,8.1154003,46.7541466,8.1154003z"/><path d="M41.0998497,9.4161816h1.3818359c0.359375,0,0.6503906-0.2910156,0.6503906-0.6503906   s-0.2910156-0.6503906-0.6503906-0.6503906h-1.3818359c-0.359375,0-0.6503906,0.2910156-0.6503906,0.6503906   S40.7404747,9.4161816,41.0998497,9.4161816z"/><path d="M36.418148,2.9263742c-0.9700317,0-1.7600098,0.7799683-1.7600098,1.7499998   c0,0.9699707,0.789978,1.7599487,1.7600098,1.7599487c0.9699707,0,1.75-0.789978,1.75-1.7599487   C38.168148,3.7063425,37.3881187,2.9263742,36.418148,2.9263742z M36.418148,5.4363227   c-0.4200439,0-0.7600098-0.3399658-0.7600098-0.7599487c0-0.4100342,0.3399658-0.7499998,0.7600098-0.7499998   c0.4099731,0,0.75,0.3399656,0.75,0.7499998C37.168148,5.0963569,36.8281212,5.4363227,36.418148,5.4363227z"/></g></svg>