<svg xmlns="http://www.w3.org/2000/svg" xmlns:xlink="http://www.w3.org/1999/xlink" version="1.1" x="0px" y="0px" viewBox="0 0 70 70" style="enable-background:new 0 0 70 70;" xml:space="preserve"><defs><style>*{fill:#ffffff;}</style></defs><path d="M41.0985107,31.0566406c0.1759033-0.1906128,0.1759033-0.4911499-0.0073242-0.6743774l-2.2282715-2.2282715  c-0.1906128-0.1905518-0.4984131-0.1905518-0.6890259,0l-0.9161987,0.9162598c-0.263916,0.2565308-0.6817017,0.2565308-0.9382324,0  l-3.6282959-3.6282959c-0.263855-0.2565308-0.263855-0.6817017,0-0.9382324l0.9161987-0.9161987  c0.1906128-0.1906128,0.1906128-0.4984131,0-0.6890259l-2.2282104-2.2282715  c-0.1832886-0.1832886-0.4837646-0.1905518-0.6817017-0.0073242c-0.9968872,0.9308472-1.8104858,1.9130859-1.8104858,2.6680298  c0,3.3717651,6.1717529,9.5435181,9.543457,9.5435181C39.1781006,32.8744507,40.1676025,32.060791,41.0985107,31.0566406z"/><path d="M35,56.0658569c0.2272339,0,0.4471436-0.1099854,0.5863647-0.2932129  c0.6230469-0.8282471,15.3634033-20.4649048,15.3634033-29.0115356c0-8.7957764-7.1539307-15.949707-15.9497681-15.949707  c-8.7957764,0-15.9497681,7.1539307-15.9497681,15.949707c0,8.5466309,14.7403564,28.1832886,15.3634033,29.0115356  C34.5528564,55.9558716,34.7727661,56.0658569,35,56.0658569z M24.269104,26.7611084  c0-5.9298706,4.8010254-10.730896,10.730896-10.730896s10.730896,4.8010254,10.730896,10.730896  c0,5.9224854-4.8010254,10.730896-10.730896,10.730896S24.269104,32.6835938,24.269104,26.7611084z"/><path d="M28.9015503,50.5686646c-0.2785034-0.4251099-0.5790405-0.8648682-0.8795776-1.3120728  c-3.8921509,0.9162598-6.208374,2.5874634-6.208374,4.5811768c0,3.4743652,6.7947998,5.3508301,13.1864014,5.3508301  c6.3989258,0,13.1937256-1.8764648,13.1937256-5.3508301c0-1.9937134-2.3235474-3.664917-6.2156982-4.5884399  c-0.3005371,0.4544678-0.59375,0.8869019-0.8869019,1.3120117c3.6722412,0.7769775,5.6366577,2.1769409,5.6366577,3.2764282  c0,1.8324585-5.0136719,3.8848267-11.7277832,3.8848267c-6.7067871,0-11.720459-2.0523682-11.720459-3.8848267  C23.279541,52.7456055,25.2366333,51.3456421,28.9015503,50.5686646z"/></svg>