<svg id="Layer_3" data-name="Layer 3" xmlns="http://www.w3.org/2000/svg" viewBox="0 0 800 534.89"><defs><style>.cls-1{fill:#ffffff;}.cls-2{fill:#8fd8e5;}</style></defs><path class="cls-1" d="M600.67,65.23l-39.81,92.69-.52,1.24c-11.84,28.78-21.53,55.64-33.9,81.28-22.06,45.68-42.45,92.64-69.56,135.25-35.41,55.57-88.69,84.9-156,88.88-34.69,2.06-68.59,1.5-102.55-5.94-80.92-17.72-142.85-85.32-152.9-167.58C32.77,187.23,93.43,96,194.35,69.17c18.86-5,39.15-5.87,58.83-6.49,32.1-1,64.24.13,96.35-.49,11.12-.19,13.6,3.88,12.82,14.2-2.87,36.9-39.12,67.8-82.26,69.17-13.7.42-27.4.72-41.11.39-52.14-1.27-102.06,46.43-109,100.66-7,54.88,21.5,108.91,70.64,126.14,57,20,112.93,16.45,161.58-23.39,26.72-21.86,43.1-52.5,57.95-83,30.73-63.1,60-127,89.27-190.71,4.34-9.43,9.36-13.87,20.1-13.45,19.31.75,38.76.82,58.08,0C593.17,62,597.31,62.94,600.67,65.23Z"/><path class="cls-2" d="M750.37,415.17q-8.46,9.15-16.7,18.6c-7.21,8.35-14.26,16.87-21,25.55-3.46,4.4-6.88,6.91-10.8,8L680.48,424,657.25,376.8l-.62-1.21C642.5,348,629.42,321.3,618,295.32c0-.09-.06-.16-.09-.26l-57.53-135.9,40.33-93.93s5,3.45,6.82,7.86l59.78,126.27s0,.1.06.13c27.93,64.35,56.52,128,85.88,191.67C757.55,400.58,757.65,407.27,750.37,415.17Z"/><path class="cls-1" d="M753.21,391.16c-13.69-.6-179.39-2-193.1-1.87-43.15.53-80,30.72-83.58,67.56-1,10.29,1.41,14.42,12.54,14.44,32.11,0,64.22,1.77,96.34,1.38,19.69-.24,97.46-.7,116.41-5.36,0,0,4.91-.62,11.34-8.68s32.38-37.86,34.38-40.39c4.21-5.3,8.33-7.32,8.67-16.53S753.21,391.16,753.21,391.16Z"/></svg>