<svg xmlns="http://www.w3.org/2000/svg" data-name="Layer 1" viewBox="0 0 32 32" x="0px" y="0px"><defs><style>*{fill:#1d2671;}</style></defs><path d="M30.733,25.223A2.962,2.962,0,0,0,31,24V10.486l-9.142,7.183Z"/><path d="M15.382,19.243a1,1,0,0,0,1.237,0L31,7.947A3,3,0,0,0,28,5H4A3,3,0,0,0,1,7.947Z"/><path d="M1,10.486V24a2.965,2.965,0,0,0,.267,1.223l8.875-7.553Z"/><path d="M20.253,18.93l-2.4,1.885a3.1,3.1,0,0,1-3.707,0l-2.4-1.886L2.655,26.667A2.963,2.963,0,0,0,4,27H28a2.956,2.956,0,0,0,1.344-.333Z"/></svg>