<svg xmlns="http://www.w3.org/2000/svg" xmlns:xlink="http://www.w3.org/1999/xlink" version="1.1" x="0px" y="0px" viewBox="0 0 70 66" enable-background="new 0 0 66 66" xml:space="preserve"><defs><style>*{fill:#ffffff;}</style></defs><g><path d="M33,1C19.6,1,8.7,11.9,8.7,25.3c0,13.1,22.6,38.3,23.6,39.3c0.2,0.2,0.5,0.3,0.7,0.3c0.3,0,0.5-0.1,0.7-0.3   c1-1.1,23.6-26.2,23.6-39.3C57.3,11.9,46.4,1,33,1z M33,42.6c-9.5,0-17.2-7.7-17.2-17.2c0-9.5,7.7-17.2,17.2-17.2   c9.5,0,17.2,7.7,17.2,17.2C50.2,34.8,42.5,42.6,33,42.6z"/><path d="M40.6,20c0,1-0.5,2-1.2,2.8c0.7-2.8,0-5.4-1.9-7.6c-1-1.1-4.4-3.7-5.1-3.8c-0.4-0.1-0.8,0.1-1,0.4c-0.2,0.3-0.2,0.8,0,1.1   c1.1,1.5-0.7,5.9-1.3,6.7c-0.6,0.7-1.1,1.4-1.5,2.1c0.3-1.3,0.9-1.9,0.2-2.5c-0.3-0.3-0.7-0.4-1.1-0.2c-3.4,1.5-5.4,4.6-5.6,8.4   c-0.2,4.2,1.9,8.3,5.3,10.4c0.3,0.2,0.7,0.2,1.1,0c0.3-0.2,0.5-0.6,0.4-1c-0.2-1.1-0.3-1.9-0.3-2.5c3.1,2.8,8.1,0.4,7.7-3.7   c1.3,2.1,1,4.6-0.2,6.8c-0.4,0.8,0.3,1.7,1.1,1.5c4-1.1,6.9-5.1,7.2-10C45.3,17.7,40.6,18.1,40.6,20z"/></g></svg>