<svg width="37" height="51" viewBox="0 0 37 51" fill="none" xmlns="http://www.w3.org/2000/svg">
<path fill-rule="evenodd" clip-rule="evenodd" d="M29.391 23.087C30.136 21.475 31.7262 20.5403 33.5691 20.1759C33.8218 20.1284 36.5404 19.6808 35.974 20.4492C35.8608 20.6051 35.5914 20.678 35.371 20.7376C35.2946 20.7583 35.2241 20.7774 35.168 20.7977C30.7155 22.3464 31.9484 27.519 33.0202 30.6875C33.0718 30.8401 33.1237 30.9926 33.1756 31.1451C34.0176 33.6186 34.8613 36.0969 34.4797 38.7158C34.1355 41.1199 32.9679 43.3894 31.1337 45.1598C29.709 46.5381 27.7093 47.762 25.8838 48.6571C24.1673 49.4968 21.9628 50.0592 20.0502 50.3443C13.0445 51.3979 5.32439 47.5679 2.85848 41.4328C1.34429 37.6646 2.47053 34.1164 3.61089 30.5237C4.04548 29.1546 4.48211 27.779 4.77545 26.3823C5.3636 23.6019 5.44638 20.1403 1.81286 19.1263C1.74012 19.107 1.65991 19.0942 1.57857 19.0812C1.34325 19.0437 1.09852 19.0047 0.998155 18.8016C0.76114 18.3204 1.53416 18.181 1.95001 18.1061C1.99281 18.0984 2.03182 18.0913 2.06556 18.0847C2.29646 18.0372 2.4838 18.0094 2.54915 18.0055C4.27006 17.9025 5.86027 18.6669 6.99738 19.7997C7.58554 20.3819 8.043 21.1938 8.33926 21.9384C8.38325 22.0473 8.41901 22.2076 8.45876 22.3857C8.56073 22.8427 8.68891 23.4171 9.0494 23.5425C9.40166 23.6646 9.68733 23.1951 9.85845 22.9139C9.89263 22.8577 9.92223 22.8091 9.94689 22.7741C11.4369 20.5918 13.0925 18.7224 15.1663 16.9599C15.5263 16.6543 15.9019 16.3416 16.2865 16.0213C20.524 12.493 25.8533 8.05569 23.4048 2.37668C23.1783 1.84991 22.882 1.3469 22.5291 0.883504C22.5106 0.859526 22.4871 0.8305 22.4606 0.797786C22.2375 0.522494 21.8029 -0.0138851 22.3636 0.000274901C23.3787 0.0319603 24.9166 1.49741 25.5266 2.13111C29.1383 5.84226 29.4128 11.1892 28.4195 15.8311C28.1232 17.2331 27.7093 18.5956 27.2301 19.9502C27.0858 20.3546 26.9212 20.754 26.7564 21.1536C26.3888 22.0455 26.0209 22.9379 25.8795 23.8871C25.7836 24.5564 25.7706 25.6298 26.594 25.9387C28.049 26.4912 28.7223 24.7703 29.1668 23.634C29.2481 23.4263 29.3217 23.2382 29.391 23.087ZM23.3875 41.6823C22.5161 42.2844 21.2222 42.6289 20.2985 41.9239C19.4446 41.2665 19.4185 40.3832 19.6842 39.4763C19.8969 38.736 20.2932 38.0831 20.6902 37.4292C21.147 36.6765 21.6047 35.9225 21.7842 35.0324C22.3026 32.4579 21.7493 29.5152 19.8062 27.523C19.787 27.5031 19.76 27.4733 19.7275 27.4374C19.4878 27.1729 18.9467 26.5757 18.9697 27.1546C18.9755 27.3632 19.0549 27.5507 19.1343 27.7382C19.174 27.8319 19.2137 27.9256 19.2442 28.022C19.3531 28.3587 19.3749 28.8815 19.2834 29.2221C18.7933 31.0228 17.4456 32.2493 15.9473 33.6128C15.8473 33.7037 15.7467 33.7953 15.6456 33.8877C13.6937 35.67 11.7768 37.4563 11.3542 40.0545C10.6745 44.229 14.0684 48.9304 19.9718 47.9917C23.4702 47.4332 27.0951 44.5499 26.3631 41.0526C26.2716 40.609 25.3654 38.696 24.6335 38.8267C24.5822 39.0157 24.6321 39.2006 24.6819 39.3846C24.7166 39.5129 24.7511 39.6408 24.7511 39.7693C24.7511 40.003 24.6248 40.2644 24.5159 40.4704C24.2545 40.9496 23.8536 41.3615 23.3875 41.6823Z" fill="white"/>
</svg>
