<svg xmlns="http://www.w3.org/2000/svg" xmlns:xlink="http://www.w3.org/1999/xlink" version="1.1" x="0px" y="0px" viewBox="0 0 110 100" style="enable-background:new 0 0 100 100;" xml:space="preserve"><defs><style>*{fill:#ffffff;}</style></defs><g><path d="M50,0C30.016,0,13.816,16.201,13.816,36.185C13.816,64.987,50,100,50,100s36.184-35.013,36.184-63.815   C86.184,16.201,69.984,0,50,0z M50,62.588c-14.583,0-26.404-11.821-26.404-26.403C23.596,21.602,35.417,9.78,50,9.78   c14.582,0,26.404,11.821,26.404,26.404C76.404,50.767,64.582,62.588,50,62.588z M56.445,29.776h10.197v12.891H56.445v10.197H43.555   V42.667H33.357V29.776h10.197V19.578h12.891V29.776z"/></g></svg>