<svg style="display: block; transform: scale(-1,1)" xmlns="http://www.w3.org/2000/svg" viewBox="0 0 64 60" x="0px" y="0px"><defs><style>*{fill:#1d2671;}</style></defs><g><path d="M48,20a11.9168,11.9168,0,0,0-10.9,7H9a1,1,0,0,0-.707.293l-4,4a.9994.9994,0,0,0,0,1.414l4,4A1,1,0,0,0,9,37h4a1,1,0,0,0,.707-.293L16,34.4141l2.293,2.2929a.9994.9994,0,0,0,1.414,0L22,34.4141l2.293,2.2929a.9994.9994,0,0,0,1.414,0L28,34.4141l2.293,2.2929A1,1,0,0,0,31,37h6.1A11.9968,11.9968,0,1,0,48,20Zm5,15a3,3,0,1,1,3-3A3.0033,3.0033,0,0,1,53,35Z"/></g></svg>