<svg xmlns:dc="http://purl.org/dc/elements/1.1/" xmlns:cc="http://creativecommons.org/ns#" xmlns:rdf="http://www.w3.org/1999/02/22-rdf-syntax-ns#" xmlns:svg="http://www.w3.org/2000/svg" xmlns="http://www.w3.org/2000/svg" xmlns:sodipodi="http://sodipodi.sourceforge.net/DTD/sodipodi-0.dtd" xmlns:inkscape="http://www.inkscape.org/namespaces/inkscape" viewBox="0 0 16.933333 17.1666675" version="1.1" x="0px" y="0px"><g transform="translate(0,-280.06664)"><path style="color:#000000;font-style:normal;font-variant:normal;font-weight:normal;font-stretch:normal;font-size:medium;line-height:normal;font-family:sans-serif;font-variant-ligatures:normal;font-variant-position:normal;font-variant-caps:normal;font-variant-numeric:normal;font-variant-alternates:normal;font-feature-settings:normal;text-indent:0;text-align:start;text-decoration:none;text-decoration-line:none;text-decoration-style:solid;text-decoration-color:#000000;letter-spacing:normal;word-spacing:normal;text-transform:none;writing-mode:lr-tb;direction:ltr;text-orientation:mixed;dominant-baseline:auto;baseline-shift:baseline;text-anchor:start;white-space:normal;shape-padding:0;clip-rule:nonzero;display:inline;overflow:visible;visibility:visible;opacity:1;isolation:auto;mix-blend-mode:normal;color-interpolation:sRGB;color-interpolation-filters:linearRGB;solid-color:#000000;solid-opacity:1;vector-effect:none;fill:#fffdd0;fill-opacity:1;fill-rule:nonzero;stroke:none;stroke-width:4;stroke-linecap:round;stroke-linejoin:round;stroke-miterlimit:4;stroke-dasharray:none;stroke-dashoffset:0;stroke-opacity:1;paint-order:stroke fill markers;color-rendering:auto;image-rendering:auto;shape-rendering:auto;text-rendering:auto;enable-background:accumulate" d="M 10.005859 2 A 2.0002001 2.0002001 0 0 0 8.0039062 4 L 8.0039062 55.998047 A 2.0002001 2.0002001 0 0 0 10.005859 57.998047 L 16.003906 57.998047 L 16.003906 53.998047 L 12.005859 53.998047 L 12.005859 6 L 40.001953 6 L 40.001953 16.003906 A 2.0002001 2.0002001 0 0 0 42.003906 18.003906 L 52 18.003906 L 52 53.998047 L 36.003906 53.998047 L 36.003906 57.998047 L 54 57.998047 A 2.0002001 2.0002001 0 0 0 56.001953 55.998047 L 56.001953 16.003906 A 2.0002001 2.0002001 0 0 0 55.417969 14.585938 L 43.416016 2.5820312 A 2.0002001 2.0002001 0 0 0 42.005859 2 L 10.005859 2 z M 44.003906 8.828125 L 49.173828 14.001953 L 44.003906 14.001953 L 44.003906 8.828125 z " transform="matrix(0.26458334,0,0,0.26458334,0,280.06664)"/><path style="color:#000000;font-style:normal;font-variant:normal;font-weight:normal;font-stretch:normal;font-size:medium;line-height:normal;font-family:sans-serif;font-variant-ligatures:normal;font-variant-position:normal;font-variant-caps:normal;font-variant-numeric:normal;font-variant-alternates:normal;font-feature-settings:normal;text-indent:0;text-align:start;text-decoration:none;text-decoration-line:none;text-decoration-style:solid;text-decoration-color:#000000;letter-spacing:normal;word-spacing:normal;text-transform:none;writing-mode:lr-tb;direction:ltr;text-orientation:mixed;dominant-baseline:auto;baseline-shift:baseline;text-anchor:start;white-space:normal;shape-padding:0;clip-rule:nonzero;display:inline;overflow:visible;visibility:visible;opacity:1;isolation:auto;mix-blend-mode:normal;color-interpolation:sRGB;color-interpolation-filters:linearRGB;solid-color:#000000;solid-opacity:1;vector-effect:none;fill:#fffdd0;fill-opacity:1;fill-rule:nonzero;stroke:none;stroke-width:4;stroke-linecap:round;stroke-linejoin:round;stroke-miterlimit:4;stroke-dasharray:none;stroke-dashoffset:0;stroke-opacity:1;paint-order:stroke fill markers;color-rendering:auto;image-rendering:auto;shape-rendering:auto;text-rendering:auto;enable-background:accumulate" d="M 26.005859 30 C 20.506701 30 16.003906 34.502778 16.003906 40.001953 C 16.003906 43.248196 17.581013 46.134333 19.998047 47.962891 A 2.0016662 2.0002001 0 0 0 19.996094 48.003906 L 19.996094 60 A 2.0016662 2.0002001 0 0 0 23.410156 61.416016 L 25.994141 58.832031 L 28.587891 61.416016 A 2.0016662 2.0002001 0 0 0 32 60 L 32 48.003906 A 2.0016662 2.0002001 0 0 0 31.998047 47.974609 C 34.421428 46.146696 36.001953 43.254868 36.001953 40.001953 C 36.001953 34.502778 31.505018 30 26.005859 30 z M 26.005859 34 C 29.343257 34 32 36.664555 32 40.001953 C 32 43.339352 29.343257 46.003906 26.005859 46.003906 C 22.668461 46.003906 20.005859 43.339352 20.005859 40.001953 C 20.005859 36.664555 22.668461 34 26.005859 34 z M 24 49.996094 L 26.005859 49.996094 L 28.005859 49.996094 L 28.005859 55.179688 L 27.412109 54.587891 A 2.0016662 2.0002001 0 0 0 24.583984 54.587891 L 24 55.171875 L 24 49.996094 z " transform="matrix(0.26458334,0,0,0.26458334,0,280.06664)"/><path style="color:#000000;font-style:normal;font-variant:normal;font-weight:normal;font-stretch:normal;font-size:medium;line-height:normal;font-family:sans-serif;font-variant-ligatures:normal;font-variant-position:normal;font-variant-caps:normal;font-variant-numeric:normal;font-variant-alternates:normal;font-feature-settings:normal;text-indent:0;text-align:start;text-decoration:none;text-decoration-line:none;text-decoration-style:solid;text-decoration-color:#000000;letter-spacing:normal;word-spacing:normal;text-transform:none;writing-mode:lr-tb;direction:ltr;text-orientation:mixed;dominant-baseline:auto;baseline-shift:baseline;text-anchor:start;white-space:normal;shape-padding:0;clip-rule:nonzero;display:inline;overflow:visible;visibility:visible;opacity:1;isolation:auto;mix-blend-mode:normal;color-interpolation:sRGB;color-interpolation-filters:linearRGB;solid-color:#000000;solid-opacity:1;vector-effect:none;fill:#fffdd0;fill-opacity:1;fill-rule:nonzero;stroke:none;stroke-width:1.0583334;stroke-linecap:butt;stroke-linejoin:miter;stroke-miterlimit:4;stroke-dasharray:none;stroke-dashoffset:0;stroke-opacity:1;color-rendering:auto;image-rendering:auto;shape-rendering:auto;text-rendering:auto;enable-background:accumulate" d="m 4.7636719,283.77148 v 1.0586 h 2.1171875 v -1.0586 z"/><path style="color:#000000;font-style:normal;font-variant:normal;font-weight:normal;font-stretch:normal;font-size:medium;line-height:normal;font-family:sans-serif;font-variant-ligatures:normal;font-variant-position:normal;font-variant-caps:normal;font-variant-numeric:normal;font-variant-alternates:normal;font-feature-settings:normal;text-indent:0;text-align:start;text-decoration:none;text-decoration-line:none;text-decoration-style:solid;text-decoration-color:#000000;letter-spacing:normal;word-spacing:normal;text-transform:none;writing-mode:lr-tb;direction:ltr;text-orientation:mixed;dominant-baseline:auto;baseline-shift:baseline;text-anchor:start;white-space:normal;shape-padding:0;clip-rule:nonzero;display:inline;overflow:visible;visibility:visible;opacity:1;isolation:auto;mix-blend-mode:normal;color-interpolation:sRGB;color-interpolation-filters:linearRGB;solid-color:#000000;solid-opacity:1;vector-effect:none;fill:#fffdd0;fill-opacity:1;fill-rule:nonzero;stroke:none;stroke-width:1.0583334;stroke-linecap:butt;stroke-linejoin:miter;stroke-miterlimit:4;stroke-dasharray:none;stroke-dashoffset:0;stroke-opacity:1;color-rendering:auto;image-rendering:auto;shape-rendering:auto;text-rendering:auto;enable-background:accumulate" d="m 4.7636719,285.88672 v 1.05859 h 7.4082031 v -1.05859 z"/></g><text x="0" y="31.933334" fill="#000000" font-size="5px" font-weight="bold" font-family="'Helvetica Neue', Helvetica, Arial-Unicode, Arial, Sans-serif">Created by Mahabbah</text><text x="0" y="36.933334" fill="#000000" font-size="5px" font-weight="bold" font-family="'Helvetica Neue', Helvetica, Arial-Unicode, Arial, Sans-serif">from the Noun Project</text></svg>