<svg xmlns="http://www.w3.org/2000/svg" xmlns:xlink="http://www.w3.org/1999/xlink" version="1.1" x="0px" y="0px" viewBox="0 0 100 100" enable-background="new 0 0 100 100" xml:space="preserve"><defs><style>*{fill:#ffffff;}</style></defs><path d="M95,79c0,4.959-20.189,9-44.998,9C25.192,88,5,83.957,5,79c0-4.109,13.877-7.691,33.747-8.713  c0.728,1.342,1.4,2.57,2.122,3.869c-16.4,0.564-27.871,2.555-27.871,4.844c0,2.754,16.599,5,36.999,5  c20.399,0,36.999-2.242,36.999-5c0-2.289-11.465-4.279-27.895-4.844c0.777-1.402,1.488-2.697,2.121-3.873  C81.109,71.305,95,74.883,95,79z M28.999,32.671c0,6.468,5.708,19,10.498,28.362C44.729,71.266,49.947,79.914,49.999,80  c0.034-0.059,5.315-8.832,10.497-18.967c4.801-9.369,10.502-21.894,10.502-28.362c-0.006-5.76-2.492-11.238-6.826-15.032  c-3.898-3.513-8.926-5.513-14.173-5.639c-5.245,0.127-10.272,2.127-14.17,5.639l-0.002,0.002  C31.492,21.434,29.003,26.912,28.999,32.671z M40.999,33c0-4.971,4.029-9,9-9c4.97,0,8.999,4.029,8.999,9  c-0.006,4.969-4.031,8.994-8.999,9C45.03,41.994,41.005,37.968,40.999,33z"/></svg>