<svg xmlns="http://www.w3.org/2000/svg" xmlns:xlink="http://www.w3.org/1999/xlink" version="1.1" viewBox="0 0 510 530" xml:space="preserve"> <defs><style>*{fill:#1A6DFF;}</style></defs> <g><g><g><g><path d="M257,497.115c-103.112,0-187-83.888-187-187c0-21.381,3.581-42.353,10.642-62.333c1.288-3.646,5.288-5.555,8.933-4.268      c3.645,1.289,5.556,5.288,4.268,8.933C87.312,270.926,84,290.328,84,310.115c0,95.393,77.607,173,173,173s173-77.607,173-173      c0-0.276-0.005-0.551-0.01-0.826l-0.011-0.709c-0.167-19.257-3.477-38.142-9.835-56.133c-1.289-3.645,0.622-7.644,4.267-8.933      c3.643-1.289,7.644,0.622,8.933,4.268c6.877,19.454,10.455,39.868,10.636,60.673l0.009,0.591      c0.006,0.355,0.012,0.712,0.012,1.069C444,413.228,360.112,497.115,257,497.115z"/></g><g><path d="M115.132,231.865c-2.237,0-4.34-1.069-5.657-2.878c-11.104-15.239-24.24-27.418-36.943-39.196      C47.574,166.652,24,144.795,24,106.017c0-50.25,40.882-91.132,91.132-91.132c50.293,0,91.209,40.882,91.209,91.132      c0,38.769-23.59,60.62-48.566,83.754c-12.721,11.783-25.875,23.968-36.986,39.216      C119.472,230.795,117.37,231.865,115.132,231.865z M115.132,28.885C72.602,28.885,38,63.486,38,106.017      c0,32.667,20.414,51.593,44.05,73.508c11.147,10.334,22.613,20.965,33.083,33.869c10.479-12.913,21.965-23.552,33.129-33.894      c23.652-21.909,44.08-40.83,44.08-73.483C192.342,63.486,157.706,28.885,115.132,28.885z"/></g><g><path d="M115.145,152.157c-25.406,0-46.076-20.693-46.076-46.127c0-25.406,20.669-46.076,46.076-46.076      c25.435,0,46.127,20.669,46.127,46.076C161.272,131.464,140.58,152.157,115.145,152.157z M115.145,73.954      c-17.687,0-32.076,14.389-32.076,32.076c0,17.715,14.389,32.127,32.076,32.127c17.715,0,32.127-14.412,32.127-32.127      C147.272,88.343,132.86,73.954,115.145,73.954z"/></g><g><path d="M251,77.115c-14.888,0-27-12.112-27-27s12.112-27,27-27s27,12.112,27,27S265.888,77.115,251,77.115z M251,37.115      c-7.168,0-13,5.832-13,13s5.832,13,13,13c7.168,0,13-5.832,13-13S258.168,37.115,251,37.115z"/></g><g><path d="M361,87.115c-9.374,0-17-7.626-17-17s7.626-17,17-17s17,7.626,17,17S370.374,87.115,361,87.115z M361,67.115      c-1.654,0-3,1.346-3,3s1.346,3,3,3s3-1.346,3-3S362.654,67.115,361,67.115z"/></g><g><path d="M221.02,180.116c-5.522,0-10.005-4.477-10.005-10s4.473-10,9.995-10h0.01c5.523,0,10,4.477,10,10      S226.543,180.116,221.02,180.116z"/></g><g><path d="M251.02,180.116c-5.522,0-10.005-4.477-10.005-10s4.473-10,9.995-10h0.01c5.523,0,10,4.477,10,10      S256.543,180.116,251.02,180.116z"/></g><g><path d="M281.02,180.116c-5.522,0-10.005-4.477-10.005-10s4.473-10,9.995-10h0.01c5.523,0,10,4.477,10,10      S286.543,180.116,281.02,180.116z"/></g><g><path d="M311.02,180.116c-5.522,0-10.005-4.477-10.005-10s4.473-10,9.995-10h0.01c5.523,0,10,4.477,10,10      S316.543,180.116,311.02,180.116z"/></g><g><path d="M481,67.115h-60c-3.866,0-7-3.134-7-7s3.134-7,7-7h60c3.866,0,7,3.134,7,7S484.866,67.115,481,67.115z"/></g><g><path d="M481,97.115h-40c-3.866,0-7-3.134-7-7s3.134-7,7-7h40c3.866,0,7,3.134,7,7S484.866,97.115,481,97.115z"/></g><g><path d="M257,497.115c-3.866,0-7-3.134-7-7v-180c0-3.866,3.134-7,7-7s7,3.134,7,7v180C264,493.981,260.866,497.115,257,497.115z      "/></g><g><path d="M437,317.115H77c-3.866,0-7-3.134-7-7s3.134-7,7-7h360c3.866,0,7,3.134,7,7S440.866,317.115,437,317.115z"/></g><g><path d="M413,401.115H101c-3.866,0-7-3.134-7-7s3.134-7,7-7h312c3.866,0,7,3.134,7,7S416.866,401.115,413,401.115z"/></g><g><path d="M363.759,257.115H148.241c-3.866,0-7-3.134-7-7s3.134-7,7-7h215.518c3.866,0,7,3.134,7,7      S367.625,257.115,363.759,257.115z"/></g><g><path d="M381,287.115H131c-3.866,0-7-3.134-7-7s3.134-7,7-7h250c3.866,0,7,3.134,7,7S384.866,287.115,381,287.115z"/></g><g><path d="M257,497.115c-31.403,0-60.656-19.931-82.37-56.119C153.588,405.926,142,359.445,142,310.115c0-3.866,3.134-7,7-7h216      c3.866,0,7,3.134,7,7c0,49.33-11.588,95.811-32.63,130.881C317.656,477.185,288.403,497.115,257,497.115z M156.082,317.115      c1.028,44.193,11.786,85.398,30.553,116.678c19.084,31.806,44.073,49.322,70.365,49.322s51.281-17.517,70.365-49.322      c18.768-31.279,29.524-72.484,30.554-116.678H156.082z"/></g><g><path d="M441,497.115H81c-3.866,0-7-3.134-7-7s3.134-7,7-7h360c3.866,0,7,3.134,7,7S444.866,497.115,441,497.115z"/></g><g><path d="M481,217.115H131c-3.866,0-7-3.134-7-7s3.134-7,7-7h343v-76H201c-3.866,0-7-3.134-7-7s3.134-7,7-7h280      c3.866,0,7,3.134,7,7v90C488,213.981,484.866,217.115,481,217.115z"/></g><g><path d="M451,187.115c-3.866,0-7-3.134-7-7v-30c0-3.866,3.134-7,7-7s7,3.134,7,7v30C458,183.981,454.866,187.115,451,187.115z"/></g><g><path d="M421,187.115c-3.866,0-7-3.134-7-7v-30c0-3.866,3.134-7,7-7s7,3.134,7,7v30C428,183.981,424.866,187.115,421,187.115z"/></g><g><path d="M391,187.115c-3.866,0-7-3.134-7-7v-30c0-3.866,3.134-7,7-7s7,3.134,7,7v30C398,183.981,394.866,187.115,391,187.115z"/></g><g><path d="M361,187.115c-3.866,0-7-3.134-7-7v-30c0-3.866,3.134-7,7-7s7,3.134,7,7v30C368,183.981,364.866,187.115,361,187.115z"/></g></g></g></g></svg>