<svg width="50" height="46" viewBox="0 0 50 46" fill="none" xmlns="http://www.w3.org/2000/svg">
<path d="M44.4637 9.12538H36.8065V4.56269C36.8065 2.0437 34.7486 0 32.2121 0H16.8975C14.361 0 12.3031 2.0437 12.3031 4.56269V9.12538H4.64583C2.10935 9.12538 0.0514526 11.1691 0.0514526 13.6881V41.0642C0.0514526 43.5832 2.10935 45.6269 4.64583 45.6269H44.4637C47.0002 45.6269 49.0581 43.5832 49.0581 41.0642V13.6881C49.0581 11.1691 47.0002 9.12538 44.4637 9.12538ZM18.429 6.08359H30.6806V9.12538H18.429V6.08359ZM33.7435 29.6575C33.7435 30.0757 33.399 30.4179 32.9778 30.4179H27.6177V35.7411C27.6177 36.1593 27.2731 36.5015 26.852 36.5015H22.2576C21.8365 36.5015 21.4919 36.1593 21.4919 35.7411V30.4179H16.1318C15.7106 30.4179 15.366 30.0757 15.366 29.6575V25.0948C15.366 24.6765 15.7106 24.3343 16.1318 24.3343H21.4919V19.0112C21.4919 18.593 21.8365 18.2508 22.2576 18.2508H26.852C27.2731 18.2508 27.6177 18.593 27.6177 19.0112V24.3343H32.9778C33.399 24.3343 33.7435 24.6765 33.7435 25.0948V29.6575Z" fill="white"/>
</svg>
