<svg width="43" height="46" viewBox="0 0 43 46" fill="none" xmlns="http://www.w3.org/2000/svg">
<path d="M42.3053 4.56269L38.0806 0C35.6513 1.46006 32.5884 2.28135 29.6311 2.28135C26.6738 2.28135 23.5898 1.43725 21.1817 0C18.7736 1.43725 15.6896 2.28135 12.7323 2.28135C9.77498 2.28135 6.71206 1.46006 4.28285 0L0.058136 4.56269C0.058136 4.56269 4.28285 9.12538 4.28285 13.6881C4.28285 18.2508 0.058136 27.3761 0.058136 31.9388C0.058136 41.0642 21.1817 45.6269 21.1817 45.6269C21.1817 45.6269 42.3053 41.0642 42.3053 31.9388C42.3053 27.3761 38.0806 18.2508 38.0806 13.6881C38.0806 9.12538 42.3053 4.56269 42.3053 4.56269ZM27.6244 32.9654L21.1183 28.7221L14.6334 32.9654L16.3655 24.9807L10.6199 19.6424L18.1822 18.9352L21.1183 11.4067L24.0756 18.9124L31.6379 19.6196L25.8923 24.9579L27.6244 32.9654Z" fill="white"/>
</svg>
