<svg xmlns="http://www.w3.org/2000/svg" xmlns:xlink="http://www.w3.org/1999/xlink" version="1.1" x="0px" y="0px" viewBox="0 0 110 100" style="enable-background:new 0 0 100 100;" xml:space="preserve"><defs><style>*{fill:#ffffff;}</style></defs><g><path d="M50,0C30.016,0,13.816,16.201,13.816,36.185C13.816,64.987,50,100,50,100s36.184-35.013,36.184-63.815   C86.184,16.201,69.984,0,50,0z M50,62.588c-14.583,0-26.404-11.821-26.404-26.403C23.596,21.602,35.417,9.78,50,9.78   c14.582,0,26.404,11.821,26.404,26.404C76.404,50.767,64.582,62.588,50,62.588z M64.25,26.569l-3.755-6.828   c0,0-4.36,4.002-10.495-0.926c-6.135,4.928-10.496,0.926-10.496,0.926l-3.755,6.828c5.8,7.989,0,6.6,0,15.66   c0,9.307,9.968,12.022,14.25,13.182c4.283-1.159,14.25-3.875,14.25-13.182C64.25,33.169,58.45,34.559,64.25,26.569z M58.258,34.539   l-5.525-0.803l-2.377-4.817C53.957,29.06,57.004,31.348,58.258,34.539z M49.645,28.918l-2.377,4.817l-5.525,0.803   C42.996,31.348,46.043,29.06,49.645,28.918z M41.128,37.781c0-0.963,0.155-1.889,0.438-2.757l4.011,3.91l-1.005,5.863   C42.478,43.174,41.128,40.636,41.128,37.781z M44.729,44.918L50,42.147l5.271,2.771c-1.474,1.09-3.296,1.736-5.271,1.736   C48.026,46.654,46.203,46.008,44.729,44.918z M55.428,44.797l-1.006-5.863l4.012-3.91c0.283,0.868,0.438,1.794,0.438,2.757   C58.872,40.636,57.522,43.174,55.428,44.797z"/></g></svg>