<svg xmlns="http://www.w3.org/2000/svg" xmlns:xlink="http://www.w3.org/1999/xlink" version="1.1" x="0px" y="0px" viewBox="0 0 500 540" style="enable-background:new 0 0 520 520;" xml:space="preserve"> <defs><style>*{fill:#1A6DFF;}</style></defs> <g><g><g><path d="M72.5,65.002c8.271,0,15-6.729,15-15c0-8.271-6.729-15-15-15s-15,6.729-15,15C57.5,58.273,64.229,65.002,72.5,65.002z"/><path d="M447.5,355.002c0,2.762-2.238,5-5,5h-380c-2.762,0-5-2.238-5-5v-230c0-2.762,2.238-5,5-5h275v-20H63     c-14.061,0-25.5,11.439-25.5,25.5v259c0,14.06,11.439,25.5,25.5,25.5c84.573,0,296.154,0,379,0c14.06,0,25.5-11.44,25.5-25.5     v-74.5h-20V355.002z M253.5,396.002c-5.523,0-10-4.478-10-10c0-5.522,4.477-10,10-10c5.522,0,10,4.478,10,10     C263.5,391.524,259.022,396.002,253.5,396.002z"/><path d="M347.5,285.669c0,7.903,6.43,14.333,14.333,14.333h106.334c7.903,0,14.333-6.43,14.333-14.333v-10.667h-135V285.669z      M402.5,280.002h25c2.762,0,5,2.238,5,5c0,2.762-2.238,5-5,5h-25c-2.762,0-5-2.238-5-5     C397.5,282.24,399.738,280.002,402.5,280.002z"/><path d="M84.427,449.946c-6.608,0-12.162,5.172-12.645,11.773c-0.509,6.982,4.757,13.076,11.738,13.586     c7,0.499,13.081-4.824,13.585-11.738C97.639,456.255,91.847,449.946,84.427,449.946z"/><path d="M272.5,325.002h-205v25h370v-40h-75.667c-13.417,0-24.333-10.916-24.333-24.333V130.002h-270v165h205     c2.762,0,5,2.238,5,5c0,2.762-2.238,5-5,5h-205v10h205c2.762,0,5,2.238,5,5C277.5,322.764,275.262,325.002,272.5,325.002z      M162.5,195.002c0,2.762-2.238,5-5,5h-10c-2.762,0-5-2.238-5-5c0-2.762,2.238-5,5-5h10     C160.262,190.002,162.5,192.24,162.5,195.002z M117.5,240.002c-2.762,0-5-2.238-5-5c0-2.762,2.238-5,5-5h45c2.762,0,5,2.238,5,5     c0,2.762-2.238,5-5,5H117.5z M152.5,255.002c0,2.762-2.238,5-5,5h-25c-2.762,0-5-2.238-5-5c0-2.762,2.238-5,5-5h25     C150.262,250.002,152.5,252.24,152.5,255.002z M107.5,215.002c0-2.762,2.238-5,5-5h40c2.762,0,5,2.238,5,5c0,2.762-2.238,5-5,5     h-40C109.738,220.002,107.5,217.764,107.5,215.002z M122.5,170.002h25c2.762,0,5,2.238,5,5c0,2.762-2.238,5-5,5h-25     c-2.762,0-5-2.238-5-5C117.5,172.24,119.738,170.002,122.5,170.002z M82.5,170.002h25c2.762,0,5,2.238,5,5c0,2.762-2.238,5-5,5     h-25c-2.762,0-5-2.238-5-5C77.5,172.24,79.738,170.002,82.5,170.002z M82.5,190.002h50c2.762,0,5,2.238,5,5c0,2.762-2.238,5-5,5     h-50c-2.762,0-5-2.238-5-5C77.5,192.24,79.738,190.002,82.5,190.002z M82.5,210.002h15c2.762,0,5,2.238,5,5c0,2.762-2.238,5-5,5     h-15c-2.762,0-5-2.238-5-5C77.5,212.24,79.738,210.002,82.5,210.002z M82.5,230.002h20c2.762,0,5,2.238,5,5c0,2.762-2.238,5-5,5     h-20c-2.762,0-5-2.238-5-5C77.5,232.24,79.738,230.002,82.5,230.002z M82.5,250.002h25c2.762,0,5,2.238,5,5c0,2.762-2.238,5-5,5     h-25c-2.762,0-5-2.238-5-5C77.5,252.24,79.738,250.002,82.5,250.002z M132.5,280.002h-50c-2.762,0-5-2.238-5-5     c0-2.762,2.238-5,5-5h50c2.762,0,5,2.238,5,5C137.5,277.764,135.262,280.002,132.5,280.002z M157.5,280.002h-10     c-2.762,0-5-2.238-5-5c0-2.762,2.238-5,5-5h10c2.762,0,5,2.238,5,5C162.5,277.764,160.262,280.002,157.5,280.002z M172.5,260.002     h-10c-2.762,0-5-2.238-5-5c0-2.762,2.238-5,5-5h10c2.762,0,5,2.238,5,5C177.5,257.764,175.262,260.002,172.5,260.002z      M187.5,240.002h-10c-2.762,0-5-2.238-5-5c0-2.762,2.238-5,5-5h10c2.762,0,5,2.238,5,5     C192.5,237.764,190.262,240.002,187.5,240.002z M192.5,220.002h-25c-2.762,0-5-2.238-5-5c0-2.762,2.238-5,5-5h25     c2.762,0,5,2.238,5,5C197.5,217.764,195.262,220.002,192.5,220.002z M197.5,200.002h-25c-2.762,0-5-2.238-5-5     c0-2.762,2.238-5,5-5h25c2.762,0,5,2.238,5,5C202.5,197.764,200.262,200.002,197.5,200.002z M217.5,220.002h-10     c-2.762,0-5-2.238-5-5c0-2.762,2.238-5,5-5h10c2.762,0,5,2.238,5,5C222.5,217.764,220.262,220.002,217.5,220.002z"/><path d="M347.5,245.002h35c2.762,0,5,2.238,5,5c0,2.762-2.238,5-5,5h-35v10h135v-10h-35c-2.762,0-5-2.238-5-5     c0-2.762,2.238-5,5-5h35v-145h-135V245.002z M358.003,177.52c0-2.342,1.625-4.369,3.91-4.881l11.903-2.658     c0.81-2.667,1.882-5.25,3.205-7.729l-6.539-10.328c-1.251-1.977-0.965-4.557,0.69-6.211l7.04-7.039     c1.655-1.655,4.238-1.941,6.215-0.686l10.319,6.551c2.456-1.316,5.04-2.389,7.73-3.211l2.66-11.912     c0.511-2.285,2.538-3.91,4.88-3.91h9.967c2.342,0,4.369,1.625,4.88,3.91l2.66,11.912c2.691,0.822,5.275,1.895,7.73,3.211     l10.319-6.551c1.978-1.256,4.561-0.971,6.215,0.686l7.04,7.039c1.654,1.654,1.94,4.234,0.689,6.211l-6.539,10.328     c1.324,2.479,2.396,5.063,3.205,7.729l11.903,2.658c2.285,0.512,3.91,2.539,3.91,4.881v9.965c0,2.342-1.625,4.369-3.91,4.881     l-11.903,2.658c-0.81,2.666-1.881,5.249-3.205,7.729l6.539,10.328c1.251,1.977,0.965,4.557-0.689,6.211l-7.04,7.039     c-1.652,1.654-4.232,1.941-6.21,0.689l-10.323-6.536c-2.469,1.321-5.054,2.392-7.733,3.204l-2.658,11.9     c-0.511,2.285-2.538,3.91-4.88,3.91h-9.967c-2.342,0-4.369-1.625-4.88-3.91l-2.658-11.902c-2.666-0.811-5.25-1.882-7.728-3.205     l-10.328,6.539c-1.977,1.252-4.557,0.965-6.21-0.689l-7.04-7.039c-1.654-1.654-1.941-4.234-0.69-6.211l6.536-10.324     c-1.321-2.468-2.393-5.053-3.204-7.732l-11.901-2.658c-2.285-0.512-3.91-2.539-3.91-4.881V177.52z"/><path d="M422.5,440.002c-5.514,0-10,4.486-10,10c0,5.514,4.486,10,10,10s10-4.486,10-10     C432.5,444.488,428.014,440.002,422.5,440.002z"/><path d="M468.167,65.002H361.833c-7.903,0-14.333,6.43-14.333,14.334v10.666h135V79.336     C482.5,71.432,476.07,65.002,468.167,65.002z M427.5,85.002h-25c-2.762,0-5-2.238-5-5c0-2.762,2.238-5,5-5h25     c2.762,0,5,2.238,5,5C432.5,82.764,430.262,85.002,427.5,85.002z"/><path d="M415.017,192.479c5.492,0,9.96-4.468,9.96-9.96c0-5.511-4.468-9.993-9.96-9.993c-5.51,0-9.993,4.482-9.993,9.993     C405.023,188.011,409.507,192.479,415.017,192.479z"/><path d="M280,60.002c4.136,0,7.5-3.364,7.5-7.5c0-4.136-3.364-7.5-7.5-7.5c-4.136,0-7.5,3.364-7.5,7.5     C272.5,56.638,275.864,60.002,280,60.002z"/><path d="M382.756,189.723c0.827,3.722,2.284,7.239,4.331,10.455c1.041,1.635,1.043,3.723,0.007,5.359l-6.021,9.512l1.381,1.381     l9.511-6.021c1.633-1.034,3.715-1.034,5.348-0.001c3.255,2.059,6.776,3.519,10.469,4.339c1.893,0.421,3.372,1.898,3.795,3.791     l2.448,10.961h1.953l2.448-10.961c0.423-1.893,1.902-3.37,3.795-3.791c3.723-0.828,7.241-2.285,10.457-4.332     c1.635-1.04,3.723-1.043,5.359-0.006l9.511,6.021l1.381-1.381l-6.021-9.512c-1.033-1.633-1.034-3.714-0.001-5.347     c2.059-3.257,3.519-6.778,4.339-10.468c0.421-1.893,1.898-3.373,3.791-3.795l10.962-2.449v-1.953l-10.962-2.449     c-1.893-0.422-3.37-1.902-3.791-3.795c-0.819-3.689-2.279-7.211-4.339-10.468c-1.033-1.633-1.032-3.714,0.001-5.347l6.021-9.512     l-1.377-1.377l-9.51,6.036c-1.64,1.041-3.734,1.038-5.37-0.007c-3.186-2.034-6.71-3.499-10.475-4.355     c-1.883-0.428-3.351-1.9-3.771-3.785l-2.448-10.961h-1.953l-2.448,10.961c-0.421,1.885-1.889,3.357-3.772,3.785     c-3.765,0.856-7.289,2.321-10.475,4.355c-1.636,1.045-3.73,1.049-5.37,0.007l-9.51-6.036l-1.377,1.377l6.021,9.512     c1.033,1.633,1.034,3.715,0.001,5.348c-2.059,3.254-3.518,6.775-4.339,10.467c-0.421,1.893-1.898,3.373-3.791,3.795     l-10.962,2.449v1.953l10.962,2.449C380.857,186.35,382.335,187.83,382.756,189.723z M415.017,162.525     c11.006,0,19.96,8.969,19.96,19.993c0,11.007-8.954,19.96-19.96,19.96c-11.024,0-19.993-8.953-19.993-19.96     C395.023,171.494,403.992,162.525,415.017,162.525z"/><circle cx="190.002" cy="67.504" r="7.5"/><circle cx="330.002" cy="42.5" r="7.5"/><circle cx="125.002" cy="42.5" r="7.5"/><circle cx="365.002" cy="457.504" r="7.5"/><circle cx="155.002" cy="442.5" r="7.5"/><path d="M322.5,475.002h-24v-55h-15v55h-60v-55h-15v55h-24c-2.762,0-5,2.238-5,5c0,2.762,2.238,5,5,5h138c2.762,0,5-2.238,5-5     C327.5,477.24,325.262,475.002,322.5,475.002z"/></g></g></g></svg>