<svg xmlns="http://www.w3.org/2000/svg" xmlns:xlink="http://www.w3.org/1999/xlink" version="1.1" x="0px" y="0px" viewBox="0 0 500 540" style="enable-background:new 0 0 520 520;" xml:space="preserve"><defs><style>*{fill:#1A6DFF;}</style></defs><g><g><path d="M451.788,231.162l7.04-7.04c1.654-1.654,1.94-4.234,0.689-6.21l-6.539-10.329c1.324-2.479,2.396-5.062,3.205-7.728    l11.903-2.659c2.285-0.511,3.91-2.539,3.91-4.88v-9.966c0-2.341-1.625-4.369-3.91-4.88l-11.903-2.659    c-0.81-2.666-1.881-5.249-3.205-7.728l6.539-10.329c1.251-1.977,0.965-4.556-0.689-6.21l-7.04-7.04    c-1.655-1.656-4.238-1.941-6.215-0.686l-10.319,6.551c-2.456-1.316-5.04-2.389-7.73-3.211l-2.66-11.913    c-0.511-2.285-2.538-3.91-4.88-3.91h-9.967c-2.342,0-4.369,1.625-4.88,3.91l-2.66,11.913c-2.69,0.822-5.275,1.895-7.73,3.211    l-10.319-6.551c-1.976-1.255-4.561-0.969-6.215,0.686l-7.04,7.04c-1.654,1.654-1.941,4.234-0.69,6.21l6.539,10.329    c-1.323,2.478-2.395,5.061-3.205,7.728l-11.903,2.659c-2.285,0.511-3.91,2.539-3.91,4.88v9.966c0,2.341,1.625,4.369,3.91,4.88    l11.901,2.659c0.812,2.679,1.883,5.265,3.204,7.733l-6.536,10.324c-1.251,1.977-0.965,4.556,0.69,6.21l7.04,7.04    c1.653,1.654,4.233,1.941,6.21,0.689l10.328-6.54c2.478,1.324,5.063,2.395,7.728,3.206l2.658,11.903    c0.511,2.285,2.538,3.91,4.88,3.91h9.967c2.342,0,4.369-1.625,4.88-3.91l2.658-11.901c2.68-0.812,5.265-1.883,7.733-3.204    l10.323,6.536C447.557,233.102,450.135,232.815,451.788,231.162z M432.677,215.246c-3.216,2.047-6.734,3.504-10.457,4.331    c-1.893,0.421-3.372,1.898-3.795,3.791l-2.448,10.961h-1.953l-2.448-10.961c-0.423-1.893-1.902-3.37-3.795-3.791    c-3.692-0.821-7.214-2.28-10.469-4.339c-1.633-1.033-3.715-1.033-5.348,0.001l-9.511,6.022l-1.381-1.381l6.021-9.511    c1.036-1.637,1.034-3.725-0.007-5.36c-2.047-3.216-3.504-6.733-4.331-10.455c-0.421-1.893-1.898-3.372-3.791-3.795l-10.962-2.449    v-1.953l10.962-2.449c1.893-0.423,3.37-1.902,3.791-3.795c0.82-3.691,2.28-7.213,4.339-10.467    c1.033-1.633,1.032-3.715-0.001-5.348l-6.021-9.511l1.377-1.377l9.51,6.037c1.639,1.042,3.733,1.038,5.37-0.007    c3.185-2.034,6.71-3.499,10.475-4.355c1.883-0.428,3.351-1.901,3.772-3.786l2.448-10.962h1.953l2.448,10.962    c0.421,1.884,1.889,3.358,3.771,3.786c3.765,0.856,7.289,2.321,10.475,4.355c1.637,1.045,3.731,1.047,5.37,0.007l9.51-6.037    l1.377,1.377l-6.021,9.511c-1.033,1.633-1.034,3.714-0.001,5.347c2.059,3.256,3.519,6.778,4.339,10.468    c0.421,1.893,1.898,3.373,3.791,3.795l10.962,2.449v1.953l-10.962,2.449c-1.893,0.423-3.37,1.902-3.791,3.795    c-0.819,3.689-2.279,7.211-4.339,10.468c-1.033,1.633-1.032,3.714,0.001,5.347l6.021,9.511l-1.381,1.381l-9.511-6.022    C436.399,214.203,434.311,214.206,432.677,215.246z"/><path d="M415.017,167.356c-11.024,0-19.993,8.969-19.993,19.994c0,11.006,8.969,19.961,19.993,19.961    c11.006,0,19.96-8.954,19.96-19.961C434.977,176.325,426.022,167.356,415.017,167.356z M415.017,197.31    c-5.51,0-9.993-4.468-9.993-9.961c0-5.511,4.483-9.994,9.993-9.994c5.492,0,9.96,4.483,9.96,9.994    C424.977,192.842,420.509,197.31,415.017,197.31z"/><circle cx="253.5" cy="390.832" r="10"/><circle cx="190.002" cy="72.334" r="7.5"/><circle cx="330.002" cy="47.33" r="7.5"/><circle cx="125.002" cy="47.33" r="7.5"/><path d="M468.167,59.833H361.833c-13.417,0-24.333,10.916-24.333,24.333v10.667H63c-19.575,0-35.5,15.925-35.5,35.5v259.001    c0,19.574,15.925,35.5,35.5,35.5h135.5v55h-14c-2.761,0-5,2.238-5,5c0,2.761,2.239,5,5,5c6.261,0,37.781,0,44,0    c36.433,0,62.499,0,94,0c2.762,0,5-2.239,5-5c0-2.762-2.238-5-5-5h-14v-55H442c19.575,0,35.5-15.926,35.5-35.5V312.97    c8.799-3.668,15-12.356,15-22.469V84.166C492.5,70.749,481.584,59.833,468.167,59.833z M67.5,329.834h205c2.762,0,5-2.239,5-5    c0-2.762-2.238-5-5-5h-205v-10h205c2.762,0,5-2.239,5-5c0-2.762-2.238-5-5-5h-205V134.833h270v155.668    c0,13.417,10.916,24.333,24.333,24.333H437.5v40h-370V329.834z M347.5,259.833h35c2.762,0,5-2.238,5-5c0-2.761-2.238-5-5-5h-35    v-145h135v145h-35c-2.762,0-5,2.239-5,5c0,2.762,2.238,5,5,5h35v10.001h-135V259.833z M361.833,69.833h106.334    c7.903,0,14.333,6.43,14.333,14.333v10.667h-135V84.166C347.5,76.263,353.93,69.833,361.833,69.833z M208.5,424.834h15v55h-15    V424.834z M233.5,479.834v-55h40v55H233.5z M298.5,479.834h-15v-55h15V479.834z M442,414.834c-8.7,0-368.558,0-379,0    c-14.061,0-25.5-11.44-25.5-25.5V130.333c0-14.06,11.439-25.5,25.5-25.5h274.5v20h-275c-2.761,0-5,2.239-5,5v230.001    c0,2.761,2.239,5,5,5h380c2.762,0,5-2.239,5-5v-45h20v74.5C467.5,403.395,456.06,414.834,442,414.834z M468.167,304.834H361.833    c-7.903,0-14.333-6.43-14.333-14.333v-10.667h135v10.667C482.5,298.404,476.07,304.834,468.167,304.834z"/><path d="M402.5,89.833h25c2.762,0,5-2.239,5-5s-2.238-5-5-5h-25c-2.762,0-5,2.239-5,5S399.738,89.833,402.5,89.833z"/><path d="M427.5,284.834h-25c-2.762,0-5,2.238-5,5c0,2.761,2.238,5,5,5h25c2.762,0,5-2.239,5-5    C432.5,287.072,430.262,284.834,427.5,284.834z"/><circle cx="365.002" cy="462.334" r="7.5"/><circle cx="155.002" cy="447.33" r="7.5"/><path d="M422.5,434.834c-11.028,0-20,8.972-20,20c0,11.027,8.972,20,20,20c11.028,0,20-8.973,20-20    C442.5,443.806,433.528,434.834,422.5,434.834z M422.5,464.834c-5.514,0-10-4.486-10-10c0-5.515,4.486-10,10-10s10,4.485,10,10    C432.5,460.348,428.014,464.834,422.5,464.834z"/><path d="M86.094,444.839c-12.531-0.905-23.384,8.632-24.285,20.985c-0.958,13.134,9.47,24.347,22.654,24.347    c11.822,0,21.756-9.245,22.616-21.046C107.989,456.645,98.575,445.75,86.094,444.839z M97.105,468.398    c-0.504,6.912-6.566,12.245-13.585,11.737c-6.981-0.509-12.247-6.604-11.738-13.585c0.499-6.849,6.485-12.244,13.584-11.738    C92.349,455.322,97.614,461.416,97.105,468.398z"/><path d="M72.5,79.833c13.785,0,25-11.215,25-25c0-13.785-11.215-25-25-25s-25,11.215-25,25C47.5,68.618,58.715,79.833,72.5,79.833    z M72.5,39.833c8.271,0,15,6.729,15,15s-6.729,15-15,15s-15-6.729-15-15S64.229,39.833,72.5,39.833z"/><path d="M280,74.833c9.649,0,17.5-7.851,17.5-17.5s-7.851-17.5-17.5-17.5c-9.649,0-17.5,7.851-17.5,17.5    S270.351,74.833,280,74.833z M280,49.833c4.136,0,7.5,3.364,7.5,7.5c0,4.136-3.364,7.5-7.5,7.5c-4.136,0-7.5-3.364-7.5-7.5    C272.5,53.197,275.864,49.833,280,49.833z"/><path d="M82.5,224.833h15c2.761,0,5-2.239,5-5s-2.239-5-5-5h-15c-2.761,0-5,2.239-5,5S79.739,224.833,82.5,224.833z"/><path d="M157.5,219.833c0-2.761-2.239-5-5-5h-40c-2.761,0-5,2.239-5,5s2.239,5,5,5h40    C155.261,224.833,157.5,222.594,157.5,219.833z"/><path d="M82.5,244.833h20c2.761,0,5-2.239,5-5s-2.239-5-5-5h-20c-2.761,0-5,2.239-5,5S79.739,244.833,82.5,244.833z"/><path d="M167.5,239.833c0-2.761-2.239-5-5-5h-45c-2.761,0-5,2.239-5,5s2.239,5,5,5h45    C165.261,244.833,167.5,242.594,167.5,239.833z"/><path d="M82.5,264.834h25c2.761,0,5-2.239,5-5c0-2.762-2.239-5.001-5-5.001h-25c-2.761,0-5,2.239-5,5.001    C77.5,262.595,79.739,264.834,82.5,264.834z"/><path d="M122.5,254.833c-2.761,0-5,2.239-5,5.001c0,2.761,2.239,5,5,5h25c2.761,0,5-2.239,5-5c0-2.762-2.239-5.001-5-5.001H122.5z    "/><path d="M187.5,234.833h-10c-2.761,0-5,2.239-5,5s2.239,5,5,5h10c2.761,0,5-2.239,5-5S190.261,234.833,187.5,234.833z"/><path d="M192.5,214.833h-25c-2.761,0-5,2.239-5,5s2.239,5,5,5h25c2.761,0,5-2.239,5-5S195.261,214.833,192.5,214.833z"/><path d="M217.5,214.833h-10c-2.761,0-5,2.239-5,5s2.239,5,5,5h10c2.761,0,5-2.239,5-5S220.261,214.833,217.5,214.833z"/><path d="M132.5,274.834h-50c-2.761,0-5,2.238-5,5c0,2.761,2.239,5,5,5h50c2.761,0,5-2.239,5-5    C137.5,277.072,135.261,274.834,132.5,274.834z"/><path d="M157.5,274.834h-10c-2.761,0-5,2.238-5,5c0,2.761,2.239,5,5,5h10c2.761,0,5-2.239,5-5    C162.5,277.072,160.261,274.834,157.5,274.834z"/><path d="M172.5,254.833h-10c-2.761,0-5,2.239-5,5.001c0,2.761,2.239,5,5,5h10c2.761,0,5-2.239,5-5    C177.5,257.072,175.261,254.833,172.5,254.833z"/><path d="M82.5,184.833h25c2.761,0,5-2.239,5-5s-2.239-5-5-5h-25c-2.761,0-5,2.239-5,5S79.739,184.833,82.5,184.833z"/><path d="M122.5,184.833h25c2.761,0,5-2.239,5-5s-2.239-5-5-5h-25c-2.761,0-5,2.239-5,5S119.739,184.833,122.5,184.833z"/><path d="M82.5,204.833h50c2.761,0,5-2.239,5-5s-2.239-5-5-5h-50c-2.761,0-5,2.239-5,5S79.739,204.833,82.5,204.833z"/><path d="M142.5,199.833c0,2.761,2.239,5,5,5h10c2.761,0,5-2.239,5-5s-2.239-5-5-5h-10    C144.739,194.833,142.5,197.072,142.5,199.833z"/><path d="M197.5,194.833h-25c-2.761,0-5,2.239-5,5s2.239,5,5,5h25c2.761,0,5-2.239,5-5S200.261,194.833,197.5,194.833z"/></g></g></svg>