<svg xmlns="http://www.w3.org/2000/svg" data-name="Layer 1" viewBox="0 0 64 64" x="0px" y="0px"><title>user people person avatar</title><g><defs><style>*{fill:#FFFFFF;}</style></defs><path d="M32,5A27,27,0,1,0,52.563,49.4766a1.1511,1.1511,0,0,0,.2189-.781c-.0021-.0152.0045-.03.0018-.0452A12.9838,12.9838,0,0,0,40,38H24a12.9715,12.9715,0,0,0-10.833,5.8164,1,1,0,0,0,1.666,1.1055A10.9785,10.9785,0,0,1,24,40H40a10.9843,10.9843,0,0,1,10.7189,8.5387q-.1576.1794-.3181.3556c-.143.1564-.2856.3129-.432.4651-.1652.1717-.3345.3385-.504.5049-.1516.1489-.3029.2983-.4578.4429-.1722.1606-.3484.3157-.5245.4709-.16.1408-.3187.2823-.4816.4186-.1788.15-.3616.2934-.5442.4377-.1676.1323-.3342.2658-.5048.3936-.1843.138-.3726.27-.56.4025-.1754.1239-.35.2494-.5281.3686-.19.1272-.3845.2478-.578.3695-.1818.1144-.3625.2306-.5471.34-.196.1164-.3959.2257-.595.3365-.1878.1047-.3745.2115-.5648.3111-.2021.1058-.4078.204-.6126.3041-.1924.0941-.3836.1908-.5784.28-.2089.0955-.4214.1828-.6329.2725-.1958.0831-.39.1693-.5884.2473-.2155.085-.4345.1612-.6524.24-.1981.0718-.395.1471-.5952.2139-.2235.0746-.45.14-.6762.2082-.1988.06-.3962.1243-.5967.1795-.2315.0637-.4662.1175-.7.1746-.1983.0485-.3953.1016-.5951.1452-.2429.0531-.4886.0955-.7334.1414-.1938.0363-.3861.0777-.5809.1095-.2606.0424-.5238.0735-.7863.1077-.1819.0237-.3624.0533-.5451.0731-.3.0324-.6025.0524-.9045.0741-.1474.0105-.2936.0273-.4414.0353Q32.6824,57,32,57a24.8988,24.8988,0,0,1-19.0366-8.8164l-.0011-.0009-.0019-.002A24.9935,24.9935,0,1,1,53.6489,44.498a1,1,0,1,0,1.73,1.004A26.9957,26.9957,0,0,0,32,5Z"/><path d="M20,24A12,12,0,1,0,32,12,12.0134,12.0134,0,0,0,20,24Zm22,0A10,10,0,1,1,32,14,10.0114,10.0114,0,0,1,42,24Z"/></g></svg>