<svg xmlns="http://www.w3.org/2000/svg" xmlns:xlink="http://www.w3.org/1999/xlink" version="1.1" x="0px" y="0px" viewBox="0 0 92 105" enable-background="new 0 0 100 100" xml:space="preserve"><defs><style>*{fill:#89f7fe;}</style></defs><path d="M65.1,30c0,1.4-1.1,2.5-2.5,2.5h-1.2H59H43.4h-1.9h-1.6c-1.4,0-2.5-1.1-2.5-2.5s1.1-2.5,2.5-2.5h1.6H49h4.5h7.9h1.2  C63.9,27.5,65.1,28.6,65.1,30z M65.1,50c0-1.4-1.1-2.5-2.5-2.5H51.5H47H36.8h-5.3H21.2c-1.4,0-2.5,1.1-2.5,2.5  c0,1.4,1.1,2.5,2.5,2.5h15.4v0h10.5v0h15.4C63.9,52.5,65.1,51.4,65.1,50z M62.6,37.5H43.9v0h-3.9v0H21.2c-1.4,0-2.5,1.1-2.5,2.5  c0,1.4,1.1,2.5,2.5,2.5h10.3h6.3H46h5.5h11.1c1.4,0,2.5-1.1,2.5-2.5C65.1,38.6,63.9,37.5,62.6,37.5z M52.6,62.5c1-1.8,2.2-3.5,3.6-5  h-9.8v0h-9v0H21.2c-1.4,0-2.5,1.1-2.5,2.5v0c0,1.4,1.1,2.5,2.5,2.5h10.3h7.6h5.6h6.8H52.6z M21.2,72.5h15.8h9.7h3  c0.1-1.7,0.4-3.4,0.8-5H42h-0.3H21.2c-1.4,0-2.5,1.1-2.5,2.5C18.7,71.4,19.9,72.5,21.2,72.5z M21,82.5h30.2c-0.6-1.6-1.1-3.3-1.3-5  H21c-1.4,0-2.5,1.1-2.5,2.5C18.5,81.4,19.6,82.5,21,82.5z M8,29.3v53c0,5.9,4.7,10.6,10.6,10.6H59c-1.8-1.4-3.5-3.1-4.8-5H18.6  c-3.1,0-5.6-2.5-5.6-5.6V30.8h8.9c5.8,0,10.6-4.8,10.6-10.6v-8.1h33.2c3.1,0,5.6,2.5,5.6,5.6v5.7v26.7C72,50,72.8,50,73.6,50  c0.9,0,1.7,0,2.6,0.1V25.1v-1.7v-5.7c0-5.9-4.7-10.6-10.6-10.6H30.9c-0.6,0-1.2,0.1-1.8,0.3c-0.6,0.2-1.1,0.6-1.5,1L9.4,25.9  c-0.5,0.4-0.8,1-1.1,1.6C8.1,28,8,28.7,8,29.3z M92,74c0,10.2-8.2,18.4-18.4,18.4S55.2,84.1,55.2,74s8.2-18.4,18.4-18.4  S92,63.8,92,74z M84.5,81.2c-0.2-0.1-0.5-0.2-0.8-0.3C80.6,80.2,78,79,78,79c-0.3-0.4-0.5-1.2-0.5-1.6c0.7-0.9,1.1-2.1,1.2-3.1  c0.3,0.2,0.8,0.1,1.3-1.8c0.4-1.6,0.2-2.1-0.2-2.2h0c1.2-6-1.6-6.2-1.6-6.2s-0.4-0.8-1.6-1.5c-0.8-0.5-1.8-0.8-3.2-0.7  c-0.4,0-0.9,0.1-1.3,0.2l0,0c-0.5,0.2-1,0.4-1.4,0.7c-0.5,0.3-1,0.7-1.4,1.2c-0.7,0.7-1.3,1.6-1.6,2.8c-0.3,1-0.2,2,0.1,3.1  c-0.5,0-1.1,0.3-0.5,2.3c0.4,1.5,0.8,1.9,1.1,1.9c0.2,1.1,0.5,2.3,1.3,3.4c-0.1,0.4-0.2,1-0.5,1.5c0,0-2.7,1.3-5.8,2.1  c-0.3,0.1-0.6,0.2-0.8,0.3c2.3,3.5,6.3,5.8,10.9,5.8C78.2,87,82.2,84.7,84.5,81.2z"/></svg>