<svg xmlns="http://www.w3.org/2000/svg" xmlns:xlink="http://www.w3.org/1999/xlink" version="1.1" x="0px" y="0px" viewBox="0 0 106 100" style="enable-background:new 0 0 100 100;" xml:space="preserve"><defs><style>*{fill:#ffffff;}</style></defs><g><path d="M50,0C30.016,0,13.816,16.2,13.816,36.185C13.816,64.987,50,100,50,100s36.183-35.013,36.183-63.815   C86.184,16.2,69.984,0,50,0z M50,62.588c-14.583,0-26.404-11.821-26.404-26.403C23.596,21.602,35.417,9.78,50,9.78   c14.582,0,26.404,11.821,26.404,26.404C76.404,50.767,64.582,62.588,50,62.588z M53.264,35.872c0.845-0.94,1.603-1.785,2.224-2.478   l6.187,0.206c5.906-5.962,4.357-11.314,4.357-11.314l-6.846,6.91l-6.511-6.573c-1.768,1.785-0.953,5.305-0.446,6.927   c-0.919,0.84-2.163,1.977-3.569,3.264l-7.445-7.417l-0.63-1.961l-5.472-4.142l-1.657,1.657l4.177,5.438l1.926,0.665l7.364,7.352   c-5.095,4.669-11.327,10.404-12.563,11.651c0,0-0.004,0.004-0.012,0.013c-0.369,0.376-2.143,2.163,0.375,4.705   c2.519,2.542,4.289,0.752,4.662,0.379c0.008-0.008,0.012-0.013,0.012-0.013c1.163-1.173,6.262-6.813,10.713-11.759l10.03,10.94   l2.723,1.792l3.354-3.353l-1.792-2.723L53.264,35.872z M56.992,25.727l-3.695-3.731c3.596-3.63,9.92-2.551,9.92-2.551   L56.992,25.727z"/></g></svg>