<svg width="21" height="21" viewBox="0 0 21 21" fill="none" xmlns="http://www.w3.org/2000/svg">
<g clip-path="url(#clip0)">
<path d="M20.5835 10.7411C20.5835 10.0273 20.5257 9.30973 20.4022 8.60754H10.4983V12.6509H16.1698C15.9344 13.955 15.1782 15.1086 14.071 15.8416V18.4652H17.4546C19.4415 16.6364 20.5835 13.9357 20.5835 10.7411Z" fill="#4285F4"/>
<path d="M10.4984 21.0001C13.3303 21.0001 15.7185 20.0702 17.4585 18.4652L14.0749 15.8417C13.1335 16.4821 11.9182 16.8448 10.5023 16.8448C7.76298 16.8448 5.44036 14.9967 4.607 12.5121H1.11536V15.2167C2.89783 18.7623 6.52836 21.0001 10.4984 21.0001Z" fill="#34A853"/>
<path d="M4.60301 12.5121C4.16318 11.2081 4.16318 9.79599 4.60301 8.49193V5.78735H1.11523C-0.374022 8.75428 -0.374022 12.2498 1.11523 15.2167L4.60301 12.5121Z" fill="#FBBC04"/>
<path d="M10.4984 4.15534C11.9954 4.13219 13.4422 4.69549 14.5263 5.72947L17.5241 2.73168C15.6259 0.949206 13.1065 -0.0307681 10.4984 9.72311e-05C6.52836 9.72311e-05 2.89783 2.23783 1.11536 5.78735L4.60314 8.49192C5.43264 6.0034 7.75912 4.15534 10.4984 4.15534Z" fill="#EA4335"/>
</g>
<defs>
<clipPath id="clip0">
<rect width="20.5833" height="21" fill="white"/>
</clipPath>
</defs>
</svg>
