<svg width="70" height="70" viewBox="0 0 70 70" fill="none" xmlns="http://www.w3.org/2000/svg">
<path d="M23.75 54.0833H53.125V50.1666H23.7735C22.8688 50.1431 21.7917 49.7848 21.7917 48.2083C21.7917 46.6318 22.8688 46.2735 23.7735 46.25H53.125V18.8333C53.125 16.6733 51.3684 14.9166 49.2083 14.9166H23.75C21.3883 14.9166 17.875 16.4813 17.875 20.7916V48.2083C17.875 52.5186 21.3883 54.0833 23.75 54.0833ZM21.7917 26.6666V20.7916C21.7917 19.2152 22.8688 18.8568 23.75 18.8333H49.2083V42.3333H21.7917V26.6666Z" fill="#0083B0"/>
<path d="M27.6667 22.75H45.2917V26.6667H27.6667V22.75Z" fill="#0083B0"/>
<rect opacity="0.1" width="70" height="70" rx="20" fill="#00B4DB"/>
</svg>
